<?xml version="1.0" encoding="utf-8" ?><svg xmlns="http://www.w3.org/2000/svg" xmlns:xlink="http://www.w3.org/1999/xlink" width="1024" height="1024" viewBox="0 0 1024 1024"><path fill="#E2E2E2" d="M0 0L1024 0L1024 1024L0 1024L0 0ZM484.766 272.704C439.393 277.327 396.312 294.922 360.674 323.382C397.728 333.136 437.224 343.858 467.984 367.89C488.599 383.984 500.173 400.416 510.824 424.049C506.956 406.75 502.449 389.749 493.742 374.158C488.103 364.06 479.77 356.451 473.31 347.085C461.452 329.891 459.682 307.307 471.115 289.43C473.313 285.994 476.147 282.131 479.24 279.456C481.73 277.303 486.94 275.115 488.487 272.612C487.163 272.493 486.073 272.546 484.766 272.704ZM533.836 272.466C545.523 278.249 553.669 287.522 557.808 299.967C562.259 313.355 561.072 327.363 554.749 339.95C550.325 348.756 543.407 355.296 537.571 363.066C524.948 379.87 516.657 402.898 513.654 423.745C524.393 399.368 537.536 380.953 559.611 365.435C590.739 344.124 626.412 333.13 662.673 324.221C655.826 318.06 647.784 313.051 639.945 308.248C613.503 292.047 586.096 280.825 555.572 275.069C548.572 273.749 540.943 272.317 533.836 272.466ZM680.955 344.571C633.529 361.168 583.769 393.848 561.341 440.308C557.746 447.757 548.78 470.089 549.177 477.948L549.662 478.471C600.126 465.525 632.613 439.63 659.031 394.99C663.415 387.582 681.802 351.465 681.17 344.754L680.955 344.571ZM340.547 344.655C355.677 391.437 390.394 441.23 434.911 464.171C446.891 470.344 460.266 474.675 473.687 476.159C467.032 434.356 439.89 401.627 406.481 377.422C386.75 363.127 364.134 351.097 340.547 344.655ZM323.261 360.445C297.605 388.281 272.541 448.863 271.314 486.809C278.616 475.679 289.281 468.174 302.387 465.447C315.242 462.882 328.588 465.604 339.413 472.997C349.857 479.979 357.122 490.803 359.629 503.113C362.108 515.732 359.307 528.366 352.048 538.947C344.911 549.436 333.84 556.597 321.347 558.805C308.311 561.276 294.83 558.363 283.976 550.732C278.657 547.048 274.658 542.486 270.948 537.24C276.164 575.506 288.047 612.379 309.558 644.774C314.052 651.595 318.906 658.639 324.447 664.65C340.919 611.485 366.835 554.535 418.49 527.229C435.842 518.056 453.728 513.864 473.076 511.751C465.681 510.636 458.371 510.044 451.048 508.386C415.235 500.274 387.746 479.598 366.192 450.471C351.972 431.255 341.172 409.522 332.78 387.197C329.495 378.459 327.171 368.874 323.261 360.445ZM699.43 360.246C687.89 395.174 674.278 428.076 652.019 457.624C646.37 465.123 640.537 472.467 633.505 478.738C625.387 485.978 616.007 491.762 606.304 496.627C588.007 505.8 566.391 510.823 545.974 511.975C553.679 513.142 561.43 513.785 569.102 515.23C607.247 522.409 632.793 539.143 655.794 570.282C676.623 598.481 690.202 631.382 699.826 664.904C704.193 659.164 708.45 653.343 712.596 647.442C736.533 610.968 747.083 579.3 752.139 536.188C743.506 548.059 734.052 556.112 719.107 558.516C706.857 560.486 694.506 557.199 684.52 549.933C674.502 542.644 667.638 530.986 665.856 518.741C664.086 506.292 667.352 493.652 674.93 483.618C682.355 473.702 693.754 467.45 705.955 465.789C718.169 464.035 730.578 467.227 740.431 474.656C745.411 478.458 748.897 483.123 752.282 488.333C747.598 447.092 737.091 414.583 714.02 379.891C709.685 373.372 705.103 365.654 699.43 360.246ZM548.844 545.683C558.206 592.854 583.571 623.467 622.651 649.568C640.194 661.284 663.22 673.786 683.426 679.865C664.26 630.257 634.372 579.316 583.649 556.82C572.467 551.905 560.802 548.172 548.844 545.683ZM471.518 547.674C430.882 554.385 397.859 581.542 374.429 614.315C361.965 631.747 351.21 651.455 344.102 671.693C343.156 674.385 341.623 677.159 341.393 680.012L341.921 680.376L343.111 680.001C392.309 659.384 444.462 628.808 465.678 576.96C469.282 568.152 472.832 557.772 473.801 548.233L473.252 547.595L471.518 547.674ZM509.8 603.374C506.9 609.709 504.019 615.971 500.308 621.888C480.664 653.212 448.511 672.243 414.699 684.858C403.51 688.955 392.204 692.723 380.794 696.156C374.5 698.046 367.822 699.534 361.698 701.872C377.195 713.522 393.275 723.574 410.875 731.758C437.785 743.742 461.672 749.434 490.914 752.136C478.4 745.407 469.575 735.703 465.446 721.895C461.286 707.981 463.535 694.054 470.465 681.445C474.716 673.713 481.67 668.707 486.778 661.717C496.527 648.376 502.281 631.547 507.074 615.887C508.205 612.194 510.209 607.243 509.8 603.374ZM514.21 604.257C517.862 622.346 524.2 640.856 533.735 656.702C538.416 664.481 545.183 669.712 550.392 676.869C563.232 694.466 563.734 718.204 551.649 736.328C546.863 743.537 541.079 748.366 533.377 752.2C561.737 750.309 589.479 743.042 615.125 730.787C632.466 722.581 648.452 712.457 663.856 701.038C612.85 688.911 553.625 670.191 524.358 623.092C522.192 619.606 516.104 606.073 514.21 604.257Z"/><path d="M360.674 323.382C396.312 294.922 439.393 277.327 484.766 272.704C486.073 272.546 487.163 272.493 488.487 272.612C486.94 275.115 481.73 277.303 479.24 279.456C476.147 282.131 473.313 285.994 471.115 289.43C459.682 307.307 461.452 329.891 473.31 347.085C479.77 356.451 488.103 364.06 493.742 374.158C502.449 389.749 506.956 406.75 510.824 424.049C500.173 400.416 488.599 383.984 467.984 367.89C437.224 343.858 397.728 333.136 360.674 323.382Z"/><path d="M513.654 423.745C516.657 402.898 524.948 379.87 537.571 363.066C543.407 355.296 550.325 348.756 554.749 339.95C561.072 327.363 562.259 313.355 557.808 299.967C553.669 287.522 545.523 278.249 533.836 272.466C540.943 272.317 548.572 273.749 555.572 275.069C586.096 280.825 613.503 292.047 639.945 308.248C647.784 313.051 655.826 318.06 662.673 324.221C626.412 333.13 590.739 344.124 559.611 365.435C537.536 380.953 524.393 399.368 513.654 423.745Z"/><path d="M549.662 478.471L549.177 477.948C548.78 470.089 557.746 447.757 561.341 440.308C583.769 393.848 633.529 361.168 680.955 344.571L681.17 344.754C681.802 351.465 663.415 387.582 659.031 394.99C632.613 439.63 600.126 465.525 549.662 478.471Z"/><path d="M473.687 476.159C460.266 474.675 446.891 470.344 434.911 464.171C390.394 441.23 355.677 391.437 340.547 344.655C364.134 351.097 386.75 363.127 406.481 377.422C439.89 401.627 467.032 434.356 473.687 476.159Z"/><path d="M271.314 486.809C272.541 448.863 297.605 388.281 323.261 360.445C327.171 368.874 329.495 378.459 332.78 387.197C341.172 409.522 351.972 431.255 366.192 450.471C387.746 479.598 415.235 500.274 451.048 508.386C458.371 510.044 465.681 510.636 473.076 511.751C453.728 513.864 435.842 518.056 418.49 527.229C366.835 554.535 340.919 611.485 324.447 664.65C318.906 658.639 314.052 651.595 309.558 644.774C288.047 612.379 276.164 575.506 270.948 537.24C274.658 542.486 278.657 547.048 283.976 550.732C294.83 558.363 308.311 561.276 321.347 558.805C333.84 556.597 344.911 549.436 352.048 538.947C359.307 528.366 362.108 515.732 359.629 503.113C357.122 490.803 349.857 479.979 339.413 472.997C328.588 465.604 315.242 462.882 302.387 465.447C289.281 468.174 278.616 475.679 271.314 486.809Z"/><path d="M545.974 511.975C566.391 510.823 588.007 505.8 606.304 496.627C616.007 491.762 625.387 485.978 633.505 478.738C640.537 472.467 646.37 465.123 652.019 457.624C674.278 428.076 687.89 395.174 699.43 360.246C705.103 365.654 709.685 373.372 714.02 379.891C737.091 414.583 747.598 447.092 752.282 488.333C748.897 483.123 745.411 478.458 740.431 474.656C730.578 467.227 718.169 464.035 705.955 465.789C693.754 467.45 682.355 473.702 674.93 483.618C667.352 493.652 664.086 506.292 665.856 518.741C667.638 530.986 674.502 542.644 684.52 549.933C694.506 557.199 706.857 560.486 719.107 558.516C734.052 556.112 743.506 548.059 752.139 536.188C747.083 579.3 736.533 610.968 712.596 647.442C708.45 653.343 704.193 659.164 699.826 664.904C690.202 631.382 676.623 598.481 655.794 570.282C632.793 539.143 607.247 522.409 569.102 515.23C561.43 513.785 553.679 513.142 545.974 511.975Z"/><path d="M683.426 679.865C663.22 673.786 640.194 661.284 622.651 649.568C583.571 623.467 558.206 592.854 548.844 545.683C560.802 548.172 572.467 551.905 583.649 556.82C634.372 579.316 664.26 630.257 683.426 679.865Z"/><path d="M343.111 680.001L341.921 680.376L341.393 680.012C341.623 677.159 343.156 674.385 344.102 671.693C351.21 651.455 361.965 631.747 374.429 614.315C397.859 581.542 430.882 554.385 471.518 547.674L473.252 547.595L473.801 548.233C472.832 557.772 469.282 568.152 465.678 576.96C444.462 628.808 392.309 659.384 343.111 680.001Z"/><path d="M361.698 701.872C367.822 699.534 374.5 698.046 380.794 696.156C392.204 692.723 403.51 688.955 414.699 684.858C448.511 672.243 480.664 653.212 500.308 621.888C504.019 615.971 506.9 609.709 509.8 603.374C510.209 607.243 508.205 612.194 507.074 615.887C502.281 631.547 496.527 648.376 486.778 661.717C481.67 668.707 474.716 673.713 470.465 681.445C463.535 694.054 461.286 707.981 465.446 721.895C469.575 735.703 478.4 745.407 490.914 752.136C461.672 749.434 437.785 743.742 410.875 731.758C393.275 723.574 377.195 713.522 361.698 701.872Z"/><path d="M533.377 752.2C541.079 748.366 546.863 743.537 551.649 736.328C563.734 718.204 563.232 694.466 550.392 676.869C545.183 669.712 538.416 664.481 533.735 656.702C524.2 640.856 517.862 622.346 514.21 604.257C516.104 606.073 522.192 619.606 524.358 623.092C553.625 670.191 612.85 688.911 663.856 701.038C648.452 712.457 632.466 722.581 615.125 730.787C589.479 743.042 561.737 750.309 533.377 752.2Z"/></svg>