<?xml version="1.0" encoding="utf-8" ?><svg xmlns="http://www.w3.org/2000/svg" xmlns:xlink="http://www.w3.org/1999/xlink" width="1024" height="1024" viewBox="0 0 1024 1024"><path fill="#E2E2E2" d="M0 0L1024 0L1024 1024L0 1024L0 0ZM541.021 226.789C539.848 247.68 540.722 269.998 540.705 290.998C540.661 344.587 541.708 398.319 540.806 451.891C553.919 442.935 566.56 433.977 576.891 421.724C599.201 395.045 609.956 363.969 606.874 329.142C603.554 291.613 583.16 260.676 554.777 236.96C550.439 233.335 545.843 229.737 541.021 226.789ZM482.17 227.44C452.204 246.42 427.141 278.417 419.429 313.243C412.184 345.962 417.472 378.676 435.724 406.924C439.452 412.692 443.621 418.008 448.162 423.152C458.697 434.628 470.013 444.356 483.13 452.815C483.121 428.912 483.769 229.847 482.559 227.535L482.17 227.44ZM663.299 231.893C643.926 235.311 630.948 253.727 634.244 273.12C637.541 292.514 655.875 305.608 675.289 302.433C694.875 299.23 708.111 280.696 704.786 261.13C701.46 241.564 682.843 228.444 663.299 231.893ZM350.768 232.846C331.567 235.347 317.985 252.876 320.356 272.093C322.727 291.309 340.164 305.01 359.396 302.768C378.813 300.505 392.674 282.865 390.28 263.464C387.886 244.063 370.152 230.321 350.768 232.846ZM273.259 234.241L233.606 234.498C233.377 263.05 234.13 291.618 233.533 320.164C241.275 312.41 249.232 304.883 257.01 297.168C269.698 284.76 281.943 271.922 294.554 259.44C302.707 251.369 312.465 243.428 319.362 234.309C304.048 233.651 288.587 234.111 273.259 234.241ZM704.12 234.015C711.392 242.333 789.212 319.946 790.157 320.298L790.523 320.265C790.2 291.571 790.168 262.875 790.428 234.18L704.12 234.015ZM664.687 319.116C645.29 321.738 631.695 339.594 634.33 358.99C636.965 378.386 654.831 391.968 674.225 389.32C693.6 386.673 707.166 368.829 704.533 349.452C701.901 330.076 684.066 316.497 664.687 319.116ZM263.337 320.134C244.074 322.156 230.068 339.366 232.002 358.637C233.935 377.908 251.08 391.993 270.36 390.148C289.766 388.291 303.962 371.01 302.016 351.613C300.07 332.217 282.724 318.1 263.337 320.134ZM348.235 319.73C328.826 323.342 316.066 342.065 319.804 361.451C323.541 380.838 342.346 393.475 361.708 389.613C380.893 385.786 393.391 367.189 389.688 347.979C385.985 328.769 367.469 316.151 348.235 319.73ZM751.383 319.945C732.22 323.122 719.187 341.136 722.164 360.332C725.142 379.527 743.018 392.747 762.244 389.97C774.86 388.148 785.525 379.689 790.173 367.82C794.82 355.95 792.734 342.499 784.709 332.595C776.685 322.691 763.958 317.86 751.383 319.945ZM338.362 416.217C301.31 418.086 267.666 433.822 242.753 461.48C236.584 468.328 230.459 476.022 225.679 483.912C263.207 483.541 300.737 483.442 338.267 483.615L409.777 483.497C423.549 483.47 437.493 483.844 451.246 483.167C437.357 455.174 408.754 432.389 379.501 422.478C366.226 417.98 352.352 416.125 338.362 416.217ZM677.386 417.208C638.007 420.985 606.616 438.726 581.569 469.032C577.691 473.747 573.902 478.535 570.206 483.393C610.091 483.832 649.982 482.957 689.875 483.41C712.335 483.606 734.796 483.683 757.257 483.64C770.032 483.594 784.345 482.501 796.921 484.013C775.365 451.475 748.387 427.06 708.937 419.052C698.402 416.913 688.088 416.535 677.386 417.208ZM670.893 541.262C637.665 541.667 604.319 540.718 571.117 541.59C595.12 573.578 626.825 601.085 667.866 606.894C677.578 608.269 687.364 608.204 697.123 607.435C732.267 604.298 760.117 586.904 782.438 560.137C787.471 554.102 792.162 547.602 796.518 541.063C769.605 541.357 742.69 541.46 715.776 541.369C700.823 541.32 685.841 540.91 670.893 541.262ZM226.451 541.661C244.123 571.023 277.56 596.351 310.743 604.624C343.209 612.718 377.127 606.886 405.618 589.619C410.917 586.387 415.981 582.785 420.772 578.841C432.703 569.09 444.565 555.436 451.199 541.544L298.789 541.656C274.679 541.68 250.559 541.384 226.451 541.661ZM482.413 572.629C452.07 590.803 428.687 619.022 420.118 653.712C412.438 684.804 417.006 720.443 433.637 747.889C437.988 755.094 443.003 761.875 448.618 768.144C458.351 779.137 470.583 789.987 483.065 797.828C483.366 739.854 483.351 681.88 483.018 623.907C482.987 615.782 483.83 577.369 482.413 572.629ZM540.964 573.066C540.11 619.041 540.638 665.11 540.63 711.097L540.568 764.293C540.56 775.507 540.299 786.828 540.91 798.024C554.164 789.272 566.141 779.086 576.418 766.936C598.687 740.942 610.002 708.525 607.34 674.183C604.706 640.191 585.74 607.822 559.976 586.073C554.413 581.377 547.75 575.844 540.964 573.066ZM262.706 634.389C243.313 636.71 229.488 654.332 231.848 673.72C234.207 693.107 251.855 706.899 271.238 704.502C290.568 702.111 304.314 684.522 301.961 665.187C299.608 645.852 282.045 632.073 262.706 634.389ZM349.549 634.474C330.049 637.348 316.6 655.525 319.554 675.013C322.507 694.501 340.738 707.876 360.214 704.843C379.578 701.827 392.86 683.724 389.923 664.347C386.986 644.971 368.937 631.616 349.549 634.474ZM664.925 634.751C645.522 637.435 632.019 655.41 634.845 674.792C637.671 694.175 655.744 707.546 675.106 704.579C694.268 701.642 707.472 683.795 704.675 664.611C701.878 645.428 684.128 632.094 664.925 634.751ZM754.072 634.661C734.799 636.069 720.324 652.845 721.754 672.116C723.185 691.387 739.978 705.843 759.247 704.39C778.485 702.94 792.911 686.181 791.484 666.941C790.056 647.702 773.313 633.256 754.072 634.661ZM789.893 701.905C780.534 711.864 703.813 787.326 703.096 790.078L703.552 790.332C732.341 789.515 761.371 789.961 790.18 790.031C790.167 782.823 790.854 703.94 790.415 702.732C790.303 702.426 790.067 702.18 789.893 701.905ZM233.996 703.198C233.748 732.377 233.763 761.559 234.042 790.739C263.575 791.303 293.154 790.879 322.695 791.012C308.358 778.487 295.23 763.992 281.935 750.358C271.314 739.467 260.241 729.05 249.46 718.33C245.733 714.625 238.295 705.407 233.996 703.198ZM664.582 721.764C651.937 723.37 641.13 731.646 636.283 743.436C631.436 755.225 633.296 768.71 641.155 778.746C649.013 788.782 661.658 793.822 674.266 791.944C693.47 789.084 706.793 771.298 704.139 752.064C701.485 732.83 683.843 719.317 664.582 721.764ZM351.419 722.208C332.293 724.227 318.379 741.301 320.262 760.442C322.145 779.583 339.119 793.618 358.273 791.871C377.62 790.107 391.829 772.923 389.927 753.589C388.025 734.254 370.74 720.168 351.419 722.208Z"/><path d="M540.806 451.891C541.708 398.319 540.661 344.587 540.705 290.998C540.722 269.998 539.848 247.68 541.021 226.789C545.843 229.737 550.439 233.335 554.777 236.96C583.16 260.676 603.554 291.613 606.874 329.142C609.956 363.969 599.201 395.045 576.891 421.724C566.56 433.977 553.919 442.935 540.806 451.891Z"/><path d="M448.162 423.152C443.621 418.008 439.452 412.692 435.724 406.924C417.472 378.676 412.184 345.962 419.429 313.243C427.141 278.417 452.204 246.42 482.17 227.44L482.559 227.535C483.769 229.847 483.121 428.912 483.13 452.815C470.013 444.356 458.697 434.628 448.162 423.152Z"/><path d="M675.289 302.433C655.875 305.608 637.541 292.514 634.244 273.12C630.948 253.727 643.926 235.311 663.299 231.893C682.843 228.444 701.46 241.564 704.786 261.13C708.111 280.696 694.875 299.23 675.289 302.433Z"/><path d="M359.396 302.768C340.164 305.01 322.727 291.309 320.356 272.093C317.985 252.876 331.567 235.347 350.768 232.846C370.152 230.321 387.886 244.063 390.28 263.464C392.674 282.865 378.813 300.505 359.396 302.768Z"/><path d="M233.606 234.498L273.259 234.241C288.587 234.111 304.048 233.651 319.362 234.309C312.465 243.428 302.707 251.369 294.554 259.44C281.943 271.922 269.698 284.76 257.01 297.168C249.232 304.883 241.275 312.41 233.533 320.164C234.13 291.618 233.377 263.05 233.606 234.498Z"/><path d="M790.523 320.265L790.157 320.298C789.212 319.946 711.392 242.333 704.12 234.015L790.428 234.18C790.168 262.875 790.2 291.571 790.523 320.265Z"/><path d="M674.225 389.32C654.831 391.968 636.965 378.386 634.33 358.99C631.695 339.594 645.29 321.738 664.687 319.116C684.066 316.497 701.901 330.076 704.533 349.452C707.166 368.829 693.6 386.673 674.225 389.32Z"/><path d="M270.36 390.148C251.08 391.993 233.935 377.908 232.002 358.637C230.068 339.366 244.074 322.156 263.337 320.134C282.724 318.1 300.07 332.217 302.016 351.613C303.962 371.01 289.766 388.291 270.36 390.148Z"/><path d="M361.708 389.613C342.346 393.475 323.541 380.838 319.804 361.451C316.066 342.065 328.826 323.342 348.235 319.73C367.469 316.151 385.985 328.769 389.688 347.979C393.391 367.189 380.893 385.786 361.708 389.613Z"/><path d="M762.244 389.97C743.018 392.747 725.142 379.527 722.164 360.332C719.187 341.136 732.22 323.122 751.383 319.945C763.958 317.86 776.685 322.691 784.709 332.595C792.734 342.499 794.82 355.95 790.173 367.82C785.525 379.689 774.86 388.148 762.244 389.97Z"/><path d="M225.679 483.912C230.459 476.022 236.584 468.328 242.753 461.48C267.666 433.822 301.31 418.086 338.362 416.217C352.352 416.125 366.226 417.98 379.501 422.478C408.754 432.389 437.357 455.174 451.246 483.167C437.493 483.844 423.549 483.47 409.777 483.497L338.267 483.615C300.737 483.442 263.207 483.541 225.679 483.912Z"/><path d="M570.206 483.393C573.902 478.535 577.691 473.747 581.569 469.032C606.616 438.726 638.007 420.985 677.386 417.208C688.088 416.535 698.402 416.913 708.937 419.052C748.387 427.06 775.365 451.475 796.921 484.013C784.345 482.501 770.032 483.594 757.257 483.64C734.796 483.683 712.335 483.606 689.875 483.41C649.982 482.957 610.091 483.832 570.206 483.393Z"/><path d="M571.117 541.59C604.319 540.718 637.665 541.667 670.893 541.262C685.841 540.91 700.823 541.32 715.776 541.369C742.69 541.46 769.605 541.357 796.518 541.063C792.162 547.602 787.471 554.102 782.438 560.137C760.117 586.904 732.267 604.298 697.123 607.435C687.364 608.204 677.578 608.269 667.866 606.894C626.825 601.085 595.12 573.578 571.117 541.59Z"/><path d="M420.772 578.841C415.981 582.785 410.917 586.387 405.618 589.619C377.127 606.886 343.209 612.718 310.743 604.624C277.56 596.351 244.123 571.023 226.451 541.661C250.559 541.384 274.679 541.68 298.789 541.656L451.199 541.544C444.565 555.436 432.703 569.09 420.772 578.841Z"/><path d="M448.618 768.144C443.003 761.875 437.988 755.094 433.637 747.889C417.006 720.443 412.438 684.804 420.118 653.712C428.687 619.022 452.07 590.803 482.413 572.629C483.83 577.369 482.987 615.782 483.018 623.907C483.351 681.88 483.366 739.854 483.065 797.828C470.583 789.987 458.351 779.137 448.618 768.144Z"/><path d="M540.91 798.024C540.299 786.828 540.56 775.507 540.568 764.293L540.63 711.097C540.638 665.11 540.11 619.041 540.964 573.066C547.75 575.844 554.413 581.377 559.976 586.073C585.74 607.822 604.706 640.191 607.34 674.183C610.002 708.525 598.687 740.942 576.418 766.936C566.141 779.086 554.164 789.272 540.91 798.024Z"/><path d="M271.238 704.502C251.855 706.899 234.207 693.107 231.848 673.72C229.488 654.332 243.313 636.71 262.706 634.389C282.045 632.073 299.608 645.852 301.961 665.187C304.314 684.522 290.568 702.111 271.238 704.502Z"/><path d="M360.214 704.843C340.738 707.876 322.507 694.501 319.554 675.013C316.6 655.525 330.049 637.348 349.549 634.474C368.937 631.616 386.986 644.971 389.923 664.347C392.86 683.724 379.578 701.827 360.214 704.843Z"/><path d="M675.106 704.579C655.744 707.546 637.671 694.175 634.845 674.792C632.019 655.41 645.522 637.435 664.925 634.751C684.128 632.094 701.878 645.428 704.675 664.611C707.472 683.795 694.268 701.642 675.106 704.579Z"/><path d="M759.247 704.39C739.978 705.843 723.185 691.387 721.754 672.116C720.324 652.845 734.799 636.069 754.072 634.661C773.313 633.256 790.056 647.702 791.484 666.941C792.911 686.181 778.485 702.94 759.247 704.39Z"/><path d="M703.552 790.332L703.096 790.078C703.813 787.326 780.534 711.864 789.893 701.905C790.067 702.18 790.303 702.426 790.415 702.732C790.854 703.94 790.167 782.823 790.18 790.031C761.371 789.961 732.341 789.515 703.552 790.332Z"/><path d="M234.042 790.739C233.763 761.559 233.748 732.377 233.996 703.198C238.295 705.407 245.733 714.625 249.46 718.33C260.241 729.05 271.314 739.467 281.935 750.358C295.23 763.992 308.358 778.487 322.695 791.012C293.154 790.879 263.575 791.303 234.042 790.739Z"/><path d="M674.266 791.944C661.658 793.822 649.013 788.782 641.155 778.746C633.296 768.71 631.436 755.225 636.283 743.436C641.13 731.646 651.937 723.37 664.582 721.764C683.843 719.317 701.485 732.83 704.139 752.064C706.793 771.298 693.47 789.084 674.266 791.944Z"/><path d="M358.273 791.871C339.119 793.618 322.145 779.583 320.262 760.442C318.379 741.301 332.293 724.227 351.419 722.208C370.74 720.168 388.025 734.254 389.927 753.589C391.829 772.923 377.62 790.107 358.273 791.871Z"/></svg>