<?xml version="1.0" encoding="utf-8" ?><svg xmlns="http://www.w3.org/2000/svg" xmlns:xlink="http://www.w3.org/1999/xlink" width="1024" height="1024" viewBox="0 0 1024 1024"><path fill="#E2E2E2" d="M0 0L1024 0L1024 1024L0 1024L0 0ZM235.46 638.949C234.146 645.636 234.91 653.571 235.004 660.4L234.989 671.447L235.02 790.387L321.929 790.413C333.106 790.417 349.898 791.785 360.542 790.004C332.158 787.672 305.641 778.099 283.622 759.744C255.783 736.537 239.705 704.559 236.385 668.645C236.236 665.931 236.103 663.216 235.986 660.501C236.014 657.174 236.02 653.884 235.778 650.564C249.552 650.357 263.447 650.289 277.219 650.564C306.477 651.149 332.178 661.209 353.685 681.083C360.386 687.276 366.536 693.988 371.47 701.692C375.606 708.15 378.817 715.141 382.548 721.831C388.322 732.166 395.427 741.699 403.681 750.185C423.755 771.083 450.183 784.747 478.84 789.043C486.422 790.112 494.038 790.214 501.678 790.347C502.201 779.531 501.95 768.571 502.03 757.738C502.219 735.532 502.259 713.326 502.152 691.12L502.042 520.951L401.296 520.975C382.106 520.981 359.605 519.029 340.953 522.911C317.944 527.849 296.597 538.637 278.975 554.233C256.507 574.496 237.057 608.47 235.46 638.949ZM776.295 233.208C744.241 235.746 714.536 251.006 693.803 275.584C673.075 300.082 666.404 326.077 666.636 357.604C670.313 357.477 673.961 357.351 677.618 356.934C712.164 352.362 741.592 336.299 762.895 308.377C779.205 286.998 787.827 259.583 787.69 232.766C783.939 232.88 780.015 232.761 776.295 233.208ZM524.885 233.73C526.857 269.571 540.574 301.361 567.513 325.455C589.967 345.395 618.743 356.763 648.762 357.551C649.548 323.606 640.288 296.194 616.569 271.268C593.77 247.309 563.094 234.517 530.177 233.731C528.413 233.685 526.649 233.684 524.885 233.73ZM235.187 233.861L235.246 377.596C235.14 418.633 234.266 459.857 235.221 500.882L371.149 500.722C414.51 500.918 458.027 501.721 501.375 500.721C501.579 500.398 501.892 500.123 501.986 499.753C502.884 496.221 502.101 489.263 502.1 485.36L502.101 444.349L501.922 233.934L328.61 233.993C297.524 233.967 266.253 233.062 235.187 233.861ZM529.714 354.747L528.839 355.482C528.508 360.374 529.906 365.685 530.992 370.458C536.225 393.465 546.478 414.719 562.061 432.534C583.689 457.591 614.115 473.382 647.053 476.647L647.882 476.169C648.727 471.817 648.279 466.603 648.15 462.148C647.493 439.455 641.954 420.149 629.268 401.157C613.727 377.795 589.461 361.648 561.909 356.336C551.427 354.329 540.361 353.929 529.714 354.747ZM765.03 354.707C736.157 357.314 710.599 369.275 691.847 391.704C677.946 408.27 669.388 428.658 667.299 450.183C666.468 458.976 666.66 467.935 666.625 476.759C672.971 476.333 679.27 475.378 685.456 473.905C720.655 465.249 749.509 444.005 768.257 412.925C778.347 396.196 786.204 374.822 786.585 355.1C779.571 354.508 772.047 353.963 765.03 354.707ZM522.368 402.286C521.61 412.941 522.01 423.82 522.026 434.502L522.52 500.817L789.52 500.855C789.652 472.061 789.168 443.153 789.822 414.375L789.892 408.638C774.784 443.74 746.343 471.398 710.833 485.52C675.887 499.808 637.928 498.707 603.309 484.097C573.454 471.499 549.583 449.811 532.635 422.34C530.017 418.096 524.652 404.651 522.368 402.286ZM522.334 520.925C521.947 541.706 522.163 562.523 522.145 583.31C522.13 601.273 521.822 619.301 522.169 637.26C563.896 636.717 605.826 636.5 647.55 637.053L647.736 587.832C613.622 587.582 579.507 587.53 545.392 587.674C563.066 557.371 592.149 535.417 626.135 526.722C658.78 518.744 693.256 524.015 722.025 541.384C731.364 546.988 740.358 553.89 747.829 561.855C755.215 569.815 761.588 578.19 767.166 587.521L666.785 587.643C666.505 604.111 666.945 620.582 666.852 637.05C707.703 636.953 748.683 636.285 789.522 637.024L789.521 520.927L522.334 520.925ZM666.987 657.193C666.281 672.831 666.59 688.708 666.644 704.368C704.781 704.271 743.035 703.547 781.159 704.369L783.147 698.621C787.102 685.034 789.479 671.666 789.622 657.487C773.495 656.756 757.25 657.057 741.104 657.065L666.987 657.193ZM522.2 657.409C521.792 701.926 522.371 746.498 522.567 791.018C564.281 790.941 606.083 791.507 647.787 790.892C647.762 777.484 647.512 764.024 647.831 750.622L573.397 750.519L566.884 750.54C552.36 741.323 537.182 720.951 532.501 704.341L647.529 704.483C647.67 688.761 647.932 673.016 647.797 657.295L522.2 657.409ZM684.911 750.751L666.863 750.851C666.784 764.119 666.799 777.388 666.907 790.657C684.503 787.879 700.029 784.132 716.227 776.454C729.307 769.714 739.844 761.217 750.3 750.973C728.515 750.887 706.693 750.588 684.911 750.751Z"/><path d="M666.636 357.604C666.404 326.077 673.075 300.082 693.803 275.584C714.536 251.006 744.241 235.746 776.295 233.208C780.015 232.761 783.939 232.88 787.69 232.766C787.827 259.583 779.205 286.998 762.895 308.377C741.592 336.299 712.164 352.362 677.618 356.934C673.961 357.351 670.313 357.477 666.636 357.604Z"/><path d="M648.762 357.551C618.743 356.763 589.967 345.395 567.513 325.455C540.574 301.361 526.857 269.571 524.885 233.73C526.649 233.684 528.413 233.685 530.177 233.731C563.094 234.517 593.77 247.309 616.569 271.268C640.288 296.194 649.548 323.606 648.762 357.551Z"/><path d="M235.221 500.882C234.266 459.857 235.14 418.633 235.246 377.596L235.187 233.861C266.253 233.062 297.524 233.967 328.61 233.993L501.922 233.934L502.101 444.349L502.1 485.36C502.101 489.263 502.884 496.221 501.986 499.753C501.892 500.123 501.579 500.398 501.375 500.721C458.027 501.721 414.51 500.918 371.149 500.722L235.221 500.882ZM360.576 236.529C288.505 240.839 233.668 302.915 238.281 374.967C242.895 447.02 305.2 501.596 377.233 496.68C448.839 491.793 503.02 429.937 498.434 358.311C493.849 286.685 432.221 232.244 360.576 236.529Z"/><path fill="#E2E2E2" d="M377.233 496.68C305.2 501.596 242.895 447.02 238.281 374.967C233.668 302.915 288.505 240.839 360.576 236.529C432.221 232.244 493.849 286.685 498.434 358.311C503.02 429.937 448.839 491.793 377.233 496.68Z"/><path d="M647.053 476.647C614.115 473.382 583.689 457.591 562.061 432.534C546.478 414.719 536.225 393.465 530.992 370.458C529.906 365.685 528.508 360.374 528.839 355.482L529.714 354.747C540.361 353.929 551.427 354.329 561.909 356.336C589.461 361.648 613.727 377.795 629.268 401.157C641.954 420.149 647.493 439.455 648.15 462.148C648.279 466.603 648.727 471.817 647.882 476.169L647.053 476.647Z"/><path d="M666.625 476.759C666.66 467.935 666.468 458.976 667.299 450.183C669.388 428.658 677.946 408.27 691.847 391.704C710.599 369.275 736.157 357.314 765.03 354.707C772.047 353.963 779.571 354.508 786.585 355.1C786.204 374.822 778.347 396.196 768.257 412.925C749.509 444.005 720.655 465.249 685.456 473.905C679.27 475.378 672.971 476.333 666.625 476.759Z"/><path d="M522.52 500.817L522.026 434.502C522.01 423.82 521.61 412.941 522.368 402.286C524.652 404.651 530.017 418.096 532.635 422.34C549.583 449.811 573.454 471.499 603.309 484.097C637.928 498.707 675.887 499.808 710.833 485.52C746.343 471.398 774.784 443.74 789.892 408.638L789.822 414.375C789.168 443.153 789.652 472.061 789.52 500.855L522.52 500.817Z"/><path d="M235.46 638.949C237.057 608.47 256.507 574.496 278.975 554.233C296.597 538.637 317.944 527.849 340.953 522.911C359.605 519.029 382.106 520.981 401.296 520.975L502.042 520.951L502.152 691.12C502.259 713.326 502.219 735.532 502.03 757.738C501.95 768.571 502.201 779.531 501.678 790.347C494.038 790.214 486.422 790.112 478.84 789.043C450.183 784.747 423.755 771.083 403.681 750.185C395.427 741.699 388.322 732.166 382.548 721.831C378.817 715.141 375.606 708.15 371.47 701.692C366.536 693.988 360.386 687.276 353.685 681.083C332.178 661.209 306.477 651.149 277.219 650.564C263.447 650.289 249.552 650.357 235.778 650.564C234.44 648.159 235.491 641.899 235.46 638.949ZM364.622 523.412C364.606 531.807 364.619 540.144 365.665 548.492C369.104 575.536 381.367 600.691 400.553 620.059C427.621 647.15 459.014 655.287 496.201 655.121L499.639 655.09C499.611 619.796 485.411 585.992 460.225 561.266C434.352 535.83 401.849 523.136 365.702 523.398C365.342 523.401 364.982 523.405 364.622 523.412Z"/><path d="M522.169 637.26C521.822 619.301 522.13 601.273 522.145 583.31C522.163 562.523 521.947 541.706 522.334 520.925L789.521 520.927L789.522 637.024C748.683 636.285 707.703 636.953 666.852 637.05C666.945 620.582 666.505 604.111 666.785 587.643L767.166 587.521C761.588 578.19 755.215 569.815 747.829 561.855C740.358 553.89 731.364 546.988 722.025 541.384C693.256 524.015 658.78 518.744 626.135 526.722C592.149 535.417 563.066 557.371 545.392 587.674C579.507 587.53 613.622 587.582 647.736 587.832L647.55 637.053C605.826 636.5 563.896 636.717 522.169 637.26Z"/><path fill="#E2E2E2" d="M499.639 655.09L496.201 655.121C459.014 655.287 427.621 647.15 400.553 620.059C381.367 600.691 369.104 575.536 365.665 548.492C364.619 540.144 364.606 531.807 364.622 523.412C364.982 523.405 365.342 523.401 365.702 523.398C401.849 523.136 434.352 535.83 460.225 561.266C485.411 585.992 499.611 619.796 499.639 655.09Z"/><path fill="#636365" d="M235.004 660.4C234.91 653.571 234.146 645.636 235.46 638.949C235.491 641.899 234.44 648.159 235.778 650.564C236.02 653.884 236.014 657.174 235.986 660.501L235.004 660.4Z"/><path d="M666.644 704.368C666.59 688.708 666.281 672.831 666.987 657.193L741.104 657.065C757.25 657.057 773.495 656.756 789.622 657.487C789.479 671.666 787.102 685.034 783.147 698.621L781.159 704.369C743.035 703.547 704.781 704.271 666.644 704.368Z"/><path d="M522.567 791.018C522.371 746.498 521.792 701.926 522.2 657.409L647.797 657.295C647.932 673.016 647.67 688.761 647.529 704.483L532.501 704.341C537.182 720.951 552.36 741.323 566.884 750.54L573.397 750.519L647.831 750.622C647.512 764.024 647.762 777.484 647.787 790.892C606.083 791.507 564.281 790.941 522.567 791.018Z"/><path fill="#1C191D" d="M235.004 660.4L235.986 660.501C236.103 663.216 236.236 665.931 236.385 668.645L235.602 668.999L234.989 671.447L235.004 660.4Z"/><path d="M234.989 671.447L235.602 668.999L236.385 668.645C239.705 704.559 255.783 736.537 283.622 759.744C305.641 778.099 332.158 787.672 360.542 790.004C349.898 791.785 333.106 790.417 321.929 790.413L235.02 790.387L234.989 671.447Z"/><path d="M666.863 750.851L684.911 750.751C706.693 750.588 728.515 750.887 750.3 750.973C739.844 761.217 729.307 769.714 716.227 776.454C700.029 784.132 684.503 787.879 666.907 790.657C666.799 777.388 666.784 764.119 666.863 750.851Z"/></svg>