<?xml version="1.0" encoding="utf-8" ?><svg xmlns="http://www.w3.org/2000/svg" xmlns:xlink="http://www.w3.org/1999/xlink" width="1024" height="1024" viewBox="0 0 1024 1024"><path fill="#E2E2E2" d="M0 0L1024 0L1024 1024L0 1024L0 0ZM398.083 259.636L396.506 260.213L396.721 260.916C399.641 262.43 402.798 263.257 405.84 264.481C409.832 266.088 413.805 268.256 417.536 270.391C442.764 285.108 461.682 308.608 470.673 336.396C479.895 365.289 477.853 395.791 463.681 422.794C460.927 428.04 457.763 433.166 453.999 437.753C492.181 438.668 531.902 438.299 570.134 437.588C551.46 412.194 544.321 385.457 549.048 354.007C549.474 351.117 550.033 348.249 550.721 345.411C558.735 313.239 579.402 285.668 608.034 268.951C614.181 265.312 620.721 262.835 627.339 260.225C597.107 257.025 564.926 267.045 541.432 286.114C528.769 296.393 518.987 309.13 511.925 323.825C500.369 297.824 476.386 277.462 450.064 267.344C429.432 259.413 419.039 260.238 398.083 259.636ZM740.865 264.229C696.853 266.697 656.691 284.478 627.212 317.686C596.901 351.833 588.097 391.726 589.243 436.334C595.248 436.198 601.287 436.179 607.282 435.832C652.546 433.217 688.753 419.491 719.62 385.059C741.107 361.09 754.688 328.606 757.913 296.669C758.998 285.916 758.597 274.95 758.523 264.152C752.657 264.133 746.721 263.937 740.865 264.229ZM265.631 264.474C265.505 278.14 265.35 291.642 267.239 305.222C271.587 336.479 287.241 367.748 309.229 390.321C337.626 419.473 375.826 435.085 416.379 435.468C422.453 435.525 428.603 435.234 434.665 435.523C435.426 387.097 425.1 346.993 390.544 311.298C361.063 280.846 322.109 264.928 279.892 264.313C275.138 264.282 270.384 264.336 265.631 264.474ZM760.161 398.313C748.988 428.06 727.464 451.841 698.349 464.991C670.019 477.787 639.029 479.533 609.85 468.375C600.217 464.691 591.609 459.585 583.413 453.361C582.793 468.337 583.225 483.442 583.26 498.438L583.438 570.814C589.511 566.931 595.486 563.05 602.002 559.934C624.295 549.276 650.929 545.968 675.088 551.35C677.678 551.951 680.257 552.604 682.821 553.308C712.603 562.314 736.867 581.475 751.703 608.928C755.203 615.405 757.918 622.159 760.324 629.105C761.761 594.661 756.79 566.263 732.585 539.863C721.902 528.212 707.247 517.449 691.919 512.955C698.269 510.274 704.641 507.525 710.533 503.919C729.333 492.413 744.575 473.273 752.748 452.909C758.601 438.325 760.654 422.561 760.734 406.923C760.747 404.454 761.087 400.597 760.161 398.313ZM262.995 401.739C261.685 432.347 270.492 461.951 291.49 484.659C303.114 497.229 316.222 505.104 331.617 512.203C302.839 525.834 280.328 546.97 269.474 577.506C264.168 592.435 262.44 609.236 262.916 625.027C275.277 594.235 299.441 569.665 330.023 556.793C335.136 554.672 340.411 552.964 345.797 551.684C374.75 545.454 404.782 548.336 430.07 564.769C433.412 566.941 436.855 569.3 439.607 572.201C440.4 557.634 439.866 542.785 439.874 528.188L439.756 452.923C414.402 471.164 385.963 479.563 354.717 474.401C322.366 469.056 294.887 450.456 276.027 423.948C274.198 421.377 272.179 418.772 270.594 416.048C269.076 413.441 264.851 402.931 262.995 401.739ZM455.737 585.754L454.74 586.181C455.132 588.971 458.284 591.973 459.767 594.309C462.665 598.871 465.24 604.21 467.365 609.181C483.782 647.581 477.115 691.747 452.22 724.844C438.344 743.292 418.14 756.747 396.72 764.868C430.532 766.22 461.112 758.615 486.479 735.18C496.072 726.319 504.892 714.788 510.674 703.01C517.568 714.324 526.991 725.869 537.337 734.317C556.972 750.777 578.634 762.223 604.548 764.495C612.559 765.198 620.773 764.41 628.714 765.526C596.984 752.774 570.061 731.087 556.438 698.984C544.418 670.337 544.375 638.069 556.316 609.39C559.74 600.952 564.711 593.824 569.106 585.935C531.381 585.645 493.447 584.825 455.737 585.754ZM432.462 588.749C421.118 588.896 409.709 588.793 398.429 590.141C363.775 594.282 332.578 610.3 308.31 635.253C285.142 659.074 270.083 691.748 266.201 724.666C264.823 736.35 265.011 747.818 264.887 759.548L265.465 760.376L266.375 760.511C272.8 760.558 279.303 760.76 285.713 760.273C323.83 757.379 360.795 742.058 388.15 715.038C419.056 684.511 433.86 646.248 434.022 603.055C434.032 600.419 434.495 590.487 433.307 588.764L432.462 588.749ZM589.529 588.876C587.612 634.151 597.754 674.355 629.211 708.552C649.457 730.561 677.926 748.801 707 756.461C719.927 759.867 733.67 761.279 747.002 761.819C751.096 762.007 755.195 762.04 759.292 761.918C760.065 713.444 750.464 671.228 715.75 635.252C682.378 600.666 641.265 589.63 594.644 588.938L589.529 588.876Z"/><path d="M453.999 437.753C457.763 433.166 460.927 428.04 463.681 422.794C477.853 395.791 479.895 365.289 470.673 336.396C461.682 308.608 442.764 285.108 417.536 270.391C413.805 268.256 409.832 266.088 405.84 264.481C402.798 263.257 399.641 262.43 396.721 260.916L396.506 260.213L398.083 259.636C419.039 260.238 429.432 259.413 450.064 267.344C476.386 277.462 500.369 297.824 511.925 323.825C518.987 309.13 528.769 296.393 541.432 286.114C564.926 267.045 597.107 257.025 627.339 260.225C620.721 262.835 614.181 265.312 608.034 268.951C579.402 285.668 558.735 313.239 550.721 345.411C550.033 348.249 549.474 351.117 549.048 354.007C544.321 385.457 551.46 412.194 570.134 437.588C531.902 438.299 492.181 438.668 453.999 437.753Z"/><path d="M589.243 436.334C588.097 391.726 596.901 351.833 627.212 317.686C656.691 284.478 696.853 266.697 740.865 264.229C746.721 263.937 752.657 264.133 758.523 264.152C758.597 274.95 758.998 285.916 757.913 296.669C754.688 328.606 741.107 361.09 719.62 385.059C688.753 419.491 652.546 433.217 607.282 435.832C601.287 436.179 595.248 436.198 589.243 436.334Z"/><path d="M434.665 435.523C428.603 435.234 422.453 435.525 416.379 435.468C375.826 435.085 337.626 419.473 309.229 390.321C287.241 367.748 271.587 336.479 267.239 305.222C265.35 291.642 265.505 278.14 265.631 264.474C270.384 264.336 275.138 264.282 279.892 264.313C322.109 264.928 361.063 280.846 390.544 311.298C425.1 346.993 435.426 387.097 434.665 435.523Z"/><path d="M583.413 453.361C591.609 459.585 600.217 464.691 609.85 468.375C639.029 479.533 670.019 477.787 698.349 464.991C727.464 451.841 748.988 428.06 760.161 398.313C761.087 400.597 760.747 404.454 760.734 406.923C760.654 422.561 758.601 438.325 752.748 452.909C744.575 473.273 729.333 492.413 710.533 503.919C704.641 507.525 698.269 510.274 691.919 512.955C707.247 517.449 721.902 528.212 732.585 539.863C756.79 566.263 761.761 594.661 760.324 629.105C757.918 622.159 755.203 615.405 751.703 608.928C736.867 581.475 712.603 562.314 682.821 553.308C680.257 552.604 677.678 551.951 675.088 551.35C650.929 545.968 624.295 549.276 602.002 559.934C595.486 563.05 589.511 566.931 583.438 570.814L583.26 498.438C583.225 483.442 582.793 468.337 583.413 453.361Z"/><path d="M331.617 512.203C316.222 505.104 303.114 497.229 291.49 484.659C270.492 461.951 261.685 432.347 262.995 401.739C264.851 402.931 269.076 413.441 270.594 416.048C272.179 418.772 274.198 421.377 276.027 423.948C294.887 450.456 322.366 469.056 354.717 474.401C385.963 479.563 414.402 471.164 439.756 452.923L439.874 528.188C439.866 542.785 440.4 557.634 439.607 572.201C436.855 569.3 433.412 566.941 430.07 564.769C404.782 548.336 374.75 545.454 345.797 551.684C340.411 552.964 335.136 554.672 330.023 556.793C299.441 569.665 275.277 594.235 262.916 625.027C262.44 609.236 264.168 592.435 269.474 577.506C280.328 546.97 302.839 525.834 331.617 512.203Z"/><path d="M396.72 764.868C418.14 756.747 438.344 743.292 452.22 724.844C477.115 691.747 483.782 647.581 467.365 609.181C465.24 604.21 462.665 598.871 459.767 594.309C458.284 591.973 455.132 588.971 454.74 586.181L455.737 585.754C493.447 584.825 531.381 585.645 569.106 585.935C564.711 593.824 559.74 600.952 556.316 609.39C544.375 638.069 544.418 670.337 556.438 698.984C570.061 731.087 596.984 752.774 628.714 765.526C620.773 764.41 612.559 765.198 604.548 764.495C578.634 762.223 556.972 750.777 537.337 734.317C526.991 725.869 517.568 714.324 510.674 703.01C504.892 714.788 496.072 726.319 486.479 735.18C461.112 758.615 430.532 766.22 396.72 764.868Z"/><path d="M266.375 760.511L265.465 760.376L264.887 759.548C265.011 747.818 264.823 736.35 266.201 724.666C270.083 691.748 285.142 659.074 308.31 635.253C332.578 610.3 363.775 594.282 398.429 590.141C409.709 588.793 421.118 588.896 432.462 588.749L433.307 588.764C434.495 590.487 434.032 600.419 434.022 603.055C433.86 646.248 419.056 684.511 388.15 715.038C360.795 742.058 323.83 757.379 285.713 760.273C279.303 760.76 272.8 760.558 266.375 760.511Z"/><path d="M759.292 761.918C755.195 762.04 751.096 762.007 747.002 761.819C733.67 761.279 719.927 759.867 707 756.461C677.926 748.801 649.457 730.561 629.211 708.552C597.754 674.355 587.612 634.151 589.529 588.876L594.644 588.938C641.265 589.63 682.378 600.666 715.75 635.252C750.464 671.228 760.065 713.444 759.292 761.918Z"/></svg>