<?xml version="1.0" encoding="utf-8" ?><svg xmlns="http://www.w3.org/2000/svg" xmlns:xlink="http://www.w3.org/1999/xlink" width="1024" height="1024" viewBox="0 0 1024 1024"><path fill="#E2E2E2" d="M0 0L1024 0L1024 1024L0 1024L0 0ZM607.824 241.426L527.409 241.476L527.402 338.374L527.335 366.488C527.316 371.141 526.895 376.204 527.424 380.816C526.983 387.567 526.648 394.51 527.299 401.256C527.664 398.021 528.259 394.649 528.329 391.403C529.524 382.788 530.794 374.103 533.025 365.687C538.005 346.901 547.675 327.235 559.234 311.567C588.545 271.838 628.933 249.661 677.272 242.331C679.936 242.154 682.54 241.65 685.165 241.189C671.617 240.662 657.937 241.097 644.374 241.077C632.323 241.059 619.837 240.48 607.824 241.426ZM497.555 628.474C497.553 627.101 497.654 626.125 497.088 624.842C496.378 626.691 496.482 628.385 496.51 630.343C493.88 660.567 481.846 692.167 462.921 716.029C439.409 745.674 408.95 767.935 371.746 776.92C361.099 779.492 350.288 780.653 339.431 781.902C358.434 784.247 378.246 783.194 397.411 783.288L497.774 783.419C498.366 760.699 497.853 737.849 497.783 715.118L497.555 628.474ZM340.69 240.551L340.628 304.311C340.636 316.739 340.099 329.504 341.027 341.885C344.022 381.841 359.916 418.365 388.165 446.97C410.88 469.972 440.628 487.275 472.276 494.386C480.622 496.261 488.871 496.952 497.319 498.001C496.473 473.423 497.249 448.673 497.173 424.071C497.127 409.39 497.264 394.62 495.172 380.056C489.875 343.182 470.818 308.882 443.707 283.598C416.892 258.592 377.691 240.268 340.69 240.551ZM240.716 337.976C239.836 345.303 240.035 352.678 240.017 360.045L239.968 390.735L239.967 498.123L349.806 498.014C366.068 497.997 382.376 498.328 398.626 497.767C357.728 495.821 313.436 471.769 286.243 441.83C266.083 419.633 251.314 392.899 244.86 363.5C243.651 357.991 242.786 352.435 241.999 346.853C241.591 343.955 241.49 340.784 240.716 337.976ZM780.336 341.752L714.782 341.841C699.634 341.847 684.109 341.116 669.032 342.716C633.901 346.445 599.82 363.642 575.087 388.609C550.635 412.859 534.408 444.171 528.692 478.131C527.937 482.582 526.14 492.271 526.703 496.392C526.786 496.998 526.961 497.205 527.243 497.672C528.064 497.914 528.494 497.996 529.375 497.991L595.464 497.926C609.47 497.911 623.648 498.232 637.61 497.006C676.174 493.621 710.116 477.87 737.431 450.431C765.888 421.781 782.229 383.278 783.067 342.905L782.443 341.862C781.733 341.797 781.05 341.707 780.336 341.752ZM392.994 526.713C383.223 527.31 373.65 528.136 364.074 530.335C331.989 537.703 301.462 556.749 279.724 581.306C255.125 608.943 241.137 644.417 240.253 681.406L309.139 681.408C320.949 681.418 333.737 682.559 345.417 681.068C387.258 678.724 425.427 659.405 453.233 628.216C478.909 599.416 493.83 564.968 497.213 526.55L430.117 526.57C417.842 526.553 405.227 525.934 392.994 526.713ZM526.966 526.466L526.843 592.361C526.819 608.138 526.334 624.089 528.133 639.789C532.433 677.331 551.045 711.167 577.451 737.689C601.007 761.647 631.475 777.627 664.577 783.384C670.557 784.369 676.94 785.304 682.997 785.313C684.034 765.64 683.141 745.709 683.059 726C682.986 708.574 683.873 690.797 682.011 673.466C678.318 639.09 661.331 605.5 638.354 579.975C612.616 551.383 570.188 528.639 531.56 526.616C530.03 526.536 528.498 526.486 526.966 526.466ZM629.079 526.714C639.771 528.841 650.267 530.097 660.803 533.138C698.923 544.419 731.87 568.727 753.896 601.821C763.627 616.622 771.081 632.8 776.01 649.814C778.161 657.472 779.78 665.27 780.855 673.151C781.291 676.428 781.153 683.544 782.873 686.145C783.35 671.506 783.009 656.804 783.072 642.156L783.089 526.858L679.866 526.654L647.926 526.521C641.693 526.493 635.285 526.182 629.079 526.714Z"/><path d="M497.319 498.001C488.871 496.952 480.622 496.261 472.276 494.386C440.628 487.275 410.88 469.972 388.165 446.97C359.916 418.365 344.022 381.841 341.027 341.885C340.099 329.504 340.636 316.739 340.628 304.311L340.69 240.551C377.691 240.268 416.892 258.592 443.707 283.598C470.818 308.882 489.875 343.182 495.172 380.056C497.264 394.62 497.127 409.39 497.173 424.071C497.249 448.673 496.473 473.423 497.319 498.001Z"/><path fill="#2C2A2B" d="M607.824 241.426C619.837 240.48 632.323 241.059 644.374 241.077C657.937 241.097 671.617 240.662 685.165 241.189C682.54 241.65 679.936 242.154 677.272 242.331L677.209 241.97C674.744 240.607 616.499 242.074 607.824 241.426Z"/><path d="M527.409 241.476L607.824 241.426C616.499 242.074 674.744 240.607 677.209 241.97L677.272 242.331C628.933 249.661 588.545 271.838 559.234 311.567C547.675 327.235 538.005 346.901 533.025 365.687C530.794 374.103 529.524 382.788 528.329 391.403C526.945 388.964 527.739 383.759 527.424 380.816C526.895 376.204 527.316 371.141 527.335 366.488L527.402 338.374L527.409 241.476Z"/><path d="M239.967 498.123L239.968 390.735L240.017 360.045C240.035 352.678 239.836 345.303 240.716 337.976C241.49 340.784 241.591 343.955 241.999 346.853C242.786 352.435 243.651 357.991 244.86 363.5C251.314 392.899 266.083 419.633 286.243 441.83C313.436 471.769 357.728 495.821 398.626 497.767C382.376 498.328 366.068 497.997 349.806 498.014L239.967 498.123Z"/><path d="M529.375 497.991C528.494 497.996 528.064 497.914 527.243 497.672C526.961 497.205 526.786 496.998 526.703 496.392C526.14 492.271 527.937 482.582 528.692 478.131C534.408 444.171 550.635 412.859 575.087 388.609C599.82 363.642 633.901 346.445 669.032 342.716C684.109 341.116 699.634 341.847 714.782 341.841L780.336 341.752C781.05 341.707 781.733 341.797 782.443 341.862L783.067 342.905C782.229 383.278 765.888 421.781 737.431 450.431C710.116 477.87 676.174 493.621 637.61 497.006C623.648 498.232 609.47 497.911 595.464 497.926L529.375 497.991Z"/><path fill="#2C2A2B" d="M527.299 401.256C526.648 394.51 526.983 387.567 527.424 380.816C527.739 383.759 526.945 388.964 528.329 391.403C528.259 394.649 527.664 398.021 527.299 401.256Z"/><path d="M240.253 681.406C241.137 644.417 255.125 608.943 279.724 581.306C301.462 556.749 331.989 537.703 364.074 530.335C373.65 528.136 383.223 527.31 392.994 526.713C405.227 525.934 417.842 526.553 430.117 526.57L497.213 526.55C493.83 564.968 478.909 599.416 453.233 628.216C425.427 659.405 387.258 678.724 345.417 681.068C333.737 682.559 320.949 681.418 309.139 681.408L240.253 681.406Z"/><path d="M682.997 785.313C676.94 785.304 670.557 784.369 664.577 783.384C631.475 777.627 601.007 761.647 577.451 737.689C551.045 711.167 532.433 677.331 528.133 639.789C526.334 624.089 526.819 608.138 526.843 592.361L526.966 526.466C528.498 526.486 530.03 526.536 531.56 526.616C570.188 528.639 612.616 551.383 638.354 579.975C661.331 605.5 678.318 639.09 682.011 673.466C683.873 690.797 682.986 708.574 683.059 726C683.141 745.709 684.034 765.64 682.997 785.313Z"/><path d="M782.873 686.145C781.153 683.544 781.291 676.428 780.855 673.151C779.78 665.27 778.161 657.472 776.01 649.814C771.081 632.8 763.627 616.622 753.896 601.821C731.87 568.727 698.923 544.419 660.803 533.138C650.267 530.097 639.771 528.841 629.079 526.714C635.285 526.182 641.693 526.493 647.926 526.521L679.866 526.654L783.089 526.858L783.072 642.156C783.009 656.804 783.35 671.506 782.873 686.145Z"/><path fill="#5D595F" d="M497.555 628.474L496.51 630.343C496.482 628.385 496.378 626.691 497.088 624.842C497.654 626.125 497.553 627.101 497.555 628.474Z"/><path d="M496.51 630.343L497.555 628.474L497.783 715.118C497.853 737.849 498.366 760.699 497.774 783.419L397.411 783.288C378.246 783.194 358.434 784.247 339.431 781.902C350.288 780.653 361.099 779.492 371.746 776.92C408.95 767.935 439.409 745.674 462.921 716.029C481.846 692.167 493.88 660.567 496.51 630.343Z"/></svg>