<?xml version="1.0" encoding="utf-8" ?><svg xmlns="http://www.w3.org/2000/svg" xmlns:xlink="http://www.w3.org/1999/xlink" width="1024" height="1024" viewBox="0 0 1024 1024"><path fill="#E2E2E2" d="M0 0L1024 0L1024 1024L0 1024L0 0ZM236.327 236.981C235.715 263.966 235.701 291.318 236.242 318.306C258.046 315.861 277.08 307.806 292.772 292.129C307.959 276.558 316.965 258.714 319.577 237.054L236.327 236.981ZM356.193 236.769C351.438 275.065 337.231 304.452 306.269 328.561C286.294 344.319 261.877 353.413 236.46 354.561L236.236 492.029L371.75 492.009L492.118 492.013L492.172 413.249C492.189 377.521 495.152 345.893 478.934 312.417C472.454 299.067 463.752 286.915 453.199 276.482C425.914 249.013 394.666 236.967 356.193 236.769ZM532.66 237.267C532.634 285.967 533.368 334.687 532.806 383.385C548.202 364.126 564.089 348.551 587.252 338.889C595.749 335.344 604.663 332.809 612.904 328.663C637.332 315.82 655.59 293.718 663.59 267.305C666.466 257.568 667.795 247.439 667.529 237.29C622.646 236.773 577.534 236.344 532.66 237.267ZM707.972 237.186C707.609 244.936 707.225 252.579 705.963 260.25C700.689 292.035 684.859 321.116 661.029 342.8C650.332 352.473 638.078 360.914 624.843 366.675C615.408 370.782 605.763 373.915 596.625 378.747C560.575 397.808 535.739 436.677 533.53 477.437C533.31 482.139 533.2 486.847 533.2 491.555L613.25 491.634L627.366 491.609C627.033 479.81 626.976 468.097 628.647 456.379C633.122 424.99 649.019 393.512 670.677 370.537C700.134 339.333 740.905 321.29 783.808 320.473C785.176 320.439 786.544 320.423 787.911 320.425C787.915 292.758 787.398 265.004 787.955 237.349C761.295 237.116 734.633 237.062 707.972 237.186ZM780.201 360.703C746.818 363.633 717.015 377.265 695.151 403.173C673.134 429.262 666.235 457.558 665.882 490.932L674.941 490.875C708.431 488.517 735.759 475.84 757.898 450.209C779.784 424.872 788.724 393.4 787.696 360.343C785.241 360.443 782.626 360.362 780.201 360.703ZM389.883 532.748C377.238 532.801 364.303 532.334 351.714 533.579C321.757 536.54 295.057 551.018 274 572.19C250.127 596.193 236.274 630.227 235.506 664.025C267.302 664.669 298.017 679.494 319.903 702.304C338.956 722.161 350.939 746.156 354.856 773.38C355.502 778.202 355.69 782.982 355.856 787.837L492.323 787.867L492.302 532.721L389.883 532.748ZM533.495 532.597C533.175 568.468 542.839 598.672 568.257 624.611C578.943 635.709 591.76 644.537 605.938 650.564C615.002 654.442 624.123 657.685 632.887 662.276C667.823 680.576 695.204 715.064 704.171 753.581C706.84 765.044 707.532 776.129 707.581 787.825C734.369 787.583 761.169 788.209 787.96 787.892L788.001 704.618C744.356 704.619 704.878 688.921 673.899 657.951C644.078 628.138 626.888 588.692 626.957 546.405C626.982 541.803 627.136 537.202 627.418 532.608L533.495 532.597ZM666.097 532.655C665.604 568.916 674.018 600.028 699.79 626.657C721.265 648.845 751.23 663.279 782.373 663.624C784.11 663.639 785.848 663.633 787.585 663.605C787.658 656.382 787.712 649.23 786.903 642.036C783.644 613.857 771.163 587.545 751.402 567.193C729.831 545.237 700.396 532.788 669.618 532.604C668.444 532.599 667.27 532.616 666.097 532.655ZM532.539 642.88L532.5 737.331C532.501 754.119 532.857 770.987 532.412 787.764L668.164 787.769C667.149 758.287 656.262 732.674 634.625 712.336C611.637 690.728 592.391 690.952 568.452 675.904C559.343 670.179 550.306 662.48 543.03 654.533C539.662 650.855 536.302 646.068 532.539 642.88ZM235.695 701.882C235.512 730.464 235.473 759.048 235.578 787.631L318.39 787.732C316.679 761.759 307.91 740.845 288.066 723.411C273.789 710.868 254.804 702.55 235.695 701.882Z"/><path d="M236.242 318.306C235.701 291.318 235.715 263.966 236.327 236.981L319.577 237.054C316.965 258.714 307.959 276.558 292.772 292.129C277.08 307.806 258.046 315.861 236.242 318.306Z"/><path d="M236.46 354.561C261.877 353.413 286.294 344.319 306.269 328.561C337.231 304.452 351.438 275.065 356.193 236.769C394.666 236.967 425.914 249.013 453.199 276.482C463.752 286.915 472.454 299.067 478.934 312.417C495.152 345.893 492.189 377.521 492.172 413.249L492.118 492.013L371.75 492.009L236.236 492.029L236.46 354.561ZM384.961 315.114C342.596 318.197 310.714 354.983 313.684 397.357C316.653 439.731 353.353 471.71 395.735 468.855C438.278 465.988 470.406 429.118 467.425 386.583C464.444 344.048 427.488 312.019 384.961 315.114Z"/><path d="M532.806 383.385C533.368 334.687 532.634 285.967 532.66 237.267C577.534 236.344 622.646 236.773 667.529 237.29C667.795 247.439 666.466 257.568 663.59 267.305C655.59 293.718 637.332 315.82 612.904 328.663C604.663 332.809 595.749 335.344 587.252 338.889C564.089 348.551 548.202 364.126 532.806 383.385Z"/><path d="M533.2 491.555C533.2 486.847 533.31 482.139 533.53 477.437C535.739 436.677 560.575 397.808 596.625 378.747C605.763 373.915 615.408 370.782 624.843 366.675C638.078 360.914 650.332 352.473 661.029 342.8C684.859 321.116 700.689 292.035 705.963 260.25C707.225 252.579 707.609 244.936 707.972 237.186C734.633 237.062 761.295 237.116 787.955 237.349C787.398 265.004 787.915 292.758 787.911 320.425C786.544 320.423 785.176 320.439 783.808 320.473C740.905 321.29 700.134 339.333 670.677 370.537C649.019 393.512 633.122 424.99 628.647 456.379C626.976 468.097 627.033 479.81 627.366 491.609L613.25 491.634L533.2 491.555Z"/><path fill="#E2E2E2" d="M395.735 468.855C353.353 471.71 316.653 439.731 313.684 397.357C310.714 354.983 342.596 318.197 384.961 315.114C427.488 312.019 464.444 344.048 467.425 386.583C470.406 429.118 438.278 465.988 395.735 468.855Z"/><path d="M665.882 490.932C666.235 457.558 673.134 429.262 695.151 403.173C717.015 377.265 746.818 363.633 780.201 360.703C782.626 360.362 785.241 360.443 787.696 360.343C788.724 393.4 779.784 424.872 757.898 450.209C735.759 475.84 708.431 488.517 674.941 490.875L665.882 490.932Z"/><path d="M235.506 664.025C236.274 630.227 250.127 596.193 274 572.19C295.057 551.018 321.757 536.54 351.714 533.579C364.303 532.334 377.238 532.801 389.883 532.748L492.302 532.721L492.323 787.867L355.856 787.837C355.69 782.982 355.502 778.202 354.856 773.38C350.939 746.156 338.956 722.161 319.903 702.304C298.017 679.494 267.302 664.669 235.506 664.025ZM384.744 556.945C342.155 560.081 310.23 597.242 313.549 639.818C316.869 682.393 354.167 714.158 396.728 710.656C439.031 707.175 470.561 670.152 467.262 627.834C463.963 585.517 427.076 553.828 384.744 556.945Z"/><path d="M707.581 787.825C707.532 776.129 706.84 765.044 704.171 753.581C695.204 715.064 667.823 680.576 632.887 662.276C624.123 657.685 615.002 654.442 605.938 650.564C591.76 644.537 578.943 635.709 568.257 624.611C542.839 598.672 533.175 568.468 533.495 532.597L627.418 532.608C627.136 537.202 626.982 541.803 626.957 546.405C626.888 588.692 644.078 628.138 673.899 657.951C704.878 688.921 744.356 704.619 788.001 704.618L787.96 787.892C761.169 788.209 734.369 787.583 707.581 787.825Z"/><path d="M787.585 663.605C785.848 663.633 784.11 663.639 782.373 663.624C751.23 663.279 721.265 648.845 699.79 626.657C674.018 600.028 665.604 568.916 666.097 532.655C667.27 532.616 668.444 532.599 669.618 532.604C700.396 532.788 729.831 545.237 751.402 567.193C771.163 587.545 783.644 613.857 786.903 642.036C787.712 649.23 787.658 656.382 787.585 663.605Z"/><path fill="#E2E2E2" d="M396.728 710.656C354.167 714.158 316.869 682.393 313.549 639.818C310.23 597.242 342.155 560.081 384.744 556.945C427.076 553.828 463.963 585.517 467.262 627.834C470.561 670.152 439.031 707.175 396.728 710.656Z"/><path d="M532.412 787.764C532.857 770.987 532.501 754.119 532.5 737.331L532.539 642.88C536.302 646.068 539.662 650.855 543.03 654.533C550.306 662.48 559.343 670.179 568.452 675.904C592.391 690.952 611.637 690.728 634.625 712.336C656.262 732.674 667.149 758.287 668.164 787.769L532.412 787.764Z"/><path d="M235.578 787.631C235.473 759.048 235.512 730.464 235.695 701.882C254.804 702.55 273.789 710.868 288.066 723.411C307.91 740.845 316.679 761.759 318.39 787.732L235.578 787.631Z"/></svg>