<?xml version="1.0" encoding="UTF-8" standalone="no"?>
<svg
   width="1024"
   height="1024"
   viewBox="0 0 1024 1024"
   version="1.1"
   id="svg9"
   sodipodi:docname="orgphoto.svg"
   inkscape:version="1.4.2 (f4327f4, 2025-05-13)"
   inkscape:export-filename="logo.png"
   inkscape:export-xdpi="90.047989"
   inkscape:export-ydpi="90.047989"
   xmlns:inkscape="http://www.inkscape.org/namespaces/inkscape"
   xmlns:sodipodi="http://sodipodi.sourceforge.net/DTD/sodipodi-0.dtd"
   xmlns="http://www.w3.org/2000/svg"
   xmlns:svg="http://www.w3.org/2000/svg">
  <defs
     id="defs9">
    <filter
       inkscape:label="Torn Edges"
       inkscape:menu="Distort"
       inkscape:menu-tooltip="Displace the outside of shapes and pictures without altering their content"
       height="1"
       y="0"
       width="1"
       x="0"
       style="color-interpolation-filters:sRGB;"
       id="filter12">
      <feTurbulence
         baseFrequency="0.05"
         numOctaves="5"
         type="fractalNoise"
         result="result91"
         id="feTurbulence12" />
      <feDisplacementMap
         scale="25"
         result="result5"
         xChannelSelector="R"
         in="SourceGraphic"
         in2="result91"
         id="feDisplacementMap12" />
      <feComposite
         in="SourceGraphic"
         operator="atop"
         in2="result5"
         id="feComposite12" />
    </filter>
    <filter
       inkscape:label="Chalk and Sponge"
       inkscape:menu="Distort"
       inkscape:menu-tooltip="Low turbulence gives sponge look and high turbulence chalk"
       height="1"
       y="0"
       width="1"
       x="0"
       style="color-interpolation-filters:sRGB;"
       id="filter13">
      <feTurbulence
         baseFrequency="0.05"
         numOctaves="5"
         type="fractalNoise"
         result="result91"
         id="feTurbulence13" />
      <feDisplacementMap
         scale="25"
         result="result5"
         xChannelSelector="R"
         in="SourceGraphic"
         in2="result91"
         id="feDisplacementMap13" />
      <feComposite
         in="SourceGraphic"
         operator="atop"
         in2="result5"
         id="feComposite13"
         result="fbSourceGraphic" />
      <feColorMatrix
         result="fbSourceGraphicAlpha"
         in="fbSourceGraphic"
         values="0 0 0 -1 0 0 0 0 -1 0 0 0 0 -1 0 0 0 0 1 0"
         id="feColorMatrix14" />
      <feTurbulence
         id="feTurbulence15"
         baseFrequency="0.4"
         type="fractalNoise"
         seed="0"
         numOctaves="5"
         result="result1"
         in="fbSourceGraphic" />
      <feDisplacementMap
         id="feDisplacementMap15"
         xChannelSelector="R"
         yChannelSelector="G"
         scale="30"
         in="fbSourceGraphic"
         in2="result1" />
    </filter>
    <filter
       inkscape:label="Lapping"
       inkscape:menu="Distort"
       inkscape:menu-tooltip="Something like a water noise"
       height="1.0554548"
       y="-0.02772739"
       width="1.0564608"
       x="-0.028230383"
       style="color-interpolation-filters:sRGB;"
       id="filter14">
      <feTurbulence
         numOctaves="5"
         seed="0"
         type="fractalNoise"
         baseFrequency="0.1"
         result="result1"
         id="feTurbulence14" />
      <feGaussianBlur
         stdDeviation="2"
         result="result2"
         id="feGaussianBlur14" />
      <feDisplacementMap
         scale="50"
         yChannelSelector="B"
         xChannelSelector="R"
         in="SourceGraphic"
         in2="result2"
         id="feDisplacementMap14" />
    </filter>
    <filter
       inkscape:label="Leaves"
       inkscape:menu="Scatter"
       inkscape:menu-tooltip="Leaves on the ground in Fall, or living foliage"
       style="color-interpolation-filters:sRGB;"
       id="filter17"
       x="-0.035454271"
       y="-0.034915494"
       width="1.0709085"
       height="1.069831">
      <feTurbulence
         baseFrequency="0.09"
         numOctaves="5"
         type="fractalNoise"
         result="result6"
         id="feTurbulence16" />
      <feColorMatrix
         values="1 0 0 0 0 0 1 0 0 0 0 0 1 0 0 0 0 0 4.9 -2.9 "
         result="result5"
         in="result6"
         id="feColorMatrix16" />
      <feComposite
         in2="result5"
         operator="in"
         in="SourceGraphic"
         id="feComposite16" />
      <feMorphology
         result="result3"
         radius="6"
         operator="dilate"
         id="feMorphology16" />
      <feTurbulence
         baseFrequency="0.2"
         numOctaves="1"
         type="fractalNoise"
         result="result91"
         id="feTurbulence17" />
      <feDisplacementMap
         result="result4"
         scale="15"
         yChannelSelector="G"
         xChannelSelector="R"
         in="result3"
         in2="result91"
         id="feDisplacementMap17" />
      <feComposite
         in2="result4"
         operator="arithmetic"
         result="result2"
         k1="0.5"
         k3="1"
         id="feComposite17" />
      <feConvolveMatrix
         order="3 3"
         kernelMatrix="1 0 0 0 2 0 0 0 -1 "
         targetX="0"
         targetY="0"
         divisor="1.5"
         edgeMode="duplicate"
         in="result2"
         id="feConvolveMatrix17" />
    </filter>
  </defs>
  <sodipodi:namedview
     id="namedview9"
     pagecolor="#ffffff"
     bordercolor="#000000"
     borderopacity="0.25"
     inkscape:showpageshadow="2"
     inkscape:pageopacity="0.0"
     inkscape:pagecheckerboard="true"
     inkscape:deskcolor="#d1d1d1"
     inkscape:zoom="0.5675"
     inkscape:cx="400.88106"
     inkscape:cy="133.03965"
     inkscape:window-width="1920"
     inkscape:window-height="991"
     inkscape:window-x="-9"
     inkscape:window-y="-9"
     inkscape:window-maximized="1"
     inkscape:current-layer="svg9" />
  <rect
     style="opacity:1;fill:#ffffff;stroke-width:5.85139;stroke-linecap:round;stroke-linejoin:round"
     id="rect2"
     width="426.43927"
     height="375.4567"
     x="299.66519"
     y="324.27167" />
  <g
     id="g1"
     style="display:none">
    <path
       d="m 589.243,436.334 c -1.146,-44.608 7.658,-84.501 37.969,-118.648 29.479,-33.208 69.641,-50.989 113.653,-53.457 5.856,-0.292 11.792,-0.096 17.658,-0.077 0.074,10.798 0.475,21.764 -0.61,32.517 -3.225,31.937 -16.806,64.421 -38.293,88.39 -30.867,34.432 -67.074,48.158 -112.338,50.773 -5.995,0.347 -12.034,0.366 -18.039,0.502 z"
       id="path3"
       style="fill:#268bd2;filter:url(#filter13)" />
    <path
       d="m 434.665,435.523 c -6.062,-0.289 -12.212,0.002 -18.286,-0.055 -40.553,-0.383 -78.753,-15.995 -107.15,-45.147 -21.988,-22.573 -37.642,-53.842 -41.99,-85.099 -1.889,-13.58 -1.734,-27.082 -1.608,-40.748 4.753,-0.138 9.507,-0.192 14.261,-0.161 42.217,0.615 81.171,16.533 110.652,46.985 34.556,35.695 44.882,75.799 44.121,124.225 z"
       id="path4"
       style="fill:#d33682;filter:url(#filter12)" />
    <path
       d="m 266.375,760.511 -0.91,-0.135 -0.578,-0.828 c 0.124,-11.73 -0.064,-23.198 1.314,-34.882 3.882,-32.918 18.941,-65.592 42.109,-89.413 24.268,-24.953 55.465,-40.971 90.119,-45.112 11.28,-1.348 22.689,-1.245 34.033,-1.392 l 0.845,0.015 c 1.188,1.723 0.725,11.655 0.715,14.291 -0.162,43.193 -14.966,81.456 -45.872,111.983 -27.355,27.02 -64.32,42.341 -102.437,45.235 -6.41,0.487 -12.913,0.285 -19.338,0.238 z"
       id="path8"
       style="fill:#cb4b16;filter:url(#filter17)" />
    <path
       d="m 759.292,761.918 c -4.097,0.122 -8.196,0.089 -12.29,-0.099 -13.332,-0.54 -27.075,-1.952 -40.002,-5.358 -29.074,-7.66 -57.543,-25.9 -77.789,-47.909 -31.457,-34.197 -41.599,-74.401 -39.682,-119.676 l 5.115,0.062 c 46.621,0.692 87.734,11.728 121.106,46.314 34.714,35.976 44.315,78.192 43.542,126.666 z"
       id="path9"
       style="fill:#6c71c4;filter:url(#filter14)" />
  </g>
  <path
     d="m 567.413,453.361 c 8.196,6.224 16.804,11.33 26.437,15.014 29.179,11.158 60.169,9.412 88.499,-3.384 29.115,-13.15 50.639,-36.931 61.812,-66.678 0.926,2.284 0.586,6.141 0.573,8.61 -0.08,15.638 -2.133,31.402 -7.986,45.986 -8.173,20.364 -23.415,39.504 -42.215,51.01 -5.892,3.606 -12.264,6.355 -18.614,9.036 15.328,4.494 29.983,15.257 40.666,26.908 24.205,26.4 29.176,54.798 27.739,89.242 -2.406,-6.946 -5.121,-13.7 -8.621,-20.177 -14.836,-27.453 -39.1,-46.614 -68.882,-55.62 -2.564,-0.704 -5.143,-1.357 -7.733,-1.958 -24.159,-5.382 -50.793,-2.074 -73.086,8.584 -6.516,3.116 -12.491,6.997 -18.564,10.88 l -0.178,-72.376 c -0.035,-14.996 -0.467,-30.101 0.153,-45.077 z"
     id="path5"
     style="display:none" />
  <path
     d="m 347.617,512.203 c -15.395,-7.099 -28.503,-14.974 -40.127,-27.544 -20.998,-22.708 -29.805,-52.312 -28.495,-82.92 1.856,1.192 6.081,11.702 7.599,14.309 1.585,2.724 3.604,5.329 5.433,7.9 18.86,26.508 46.339,45.108 78.69,50.453 31.246,5.162 59.685,-3.237 85.039,-21.478 l 0.118,75.265 c -0.008,14.597 0.526,29.446 -0.267,44.013 -2.752,-2.901 -6.195,-5.26 -9.537,-7.432 -25.288,-16.433 -55.32,-19.315 -84.273,-13.085 -5.386,1.28 -10.661,2.988 -15.774,5.109 -30.582,12.872 -54.746,37.442 -67.107,68.234 -0.476,-15.791 1.252,-32.592 6.558,-47.521 10.854,-30.536 33.365,-51.672 62.143,-65.303 z"
     id="path6"
     style="display:none" />
  <path
     d="m 396.72,748.868 c 21.42,-8.121 41.624,-21.576 55.5,-40.024 24.895,-33.097 31.562,-77.263 15.145,-115.663 -2.125,-4.971 -4.7,-10.31 -7.598,-14.872 -1.483,-2.336 -4.635,-5.338 -5.027,-8.128 l 0.997,-0.427 c 37.71,-0.929 75.644,-0.109 113.369,0.181 -4.395,7.889 -9.366,15.017 -12.79,23.455 -11.941,28.679 -11.898,60.947 0.122,89.594 13.623,32.103 40.546,53.79 72.276,66.542 -7.941,-1.116 -16.155,-0.328 -24.166,-1.031 -25.914,-2.272 -47.576,-13.718 -67.211,-30.178 -10.346,-8.448 -19.769,-19.993 -26.663,-31.307 -5.782,11.778 -14.602,23.309 -24.195,32.17 -25.367,23.435 -55.947,31.04 -89.759,29.688 z"
     id="path7"
     style="display:none" />
  <g
     id="g3"
     transform="translate(5.3676181,147.03391)">
    <path
       d="m 453.999,453.753 c 3.764,-4.587 6.928,-9.713 9.682,-14.959 14.172,-27.003 16.214,-57.505 6.992,-86.398 -8.991,-27.788 -27.909,-51.288 -53.137,-66.005 -3.731,-2.135 -7.704,-4.303 -11.696,-5.91 -3.042,-1.224 -6.199,-2.051 -9.119,-3.565 l -0.215,-0.703 1.577,-0.577 c 20.956,0.602 31.349,-0.223 51.981,7.708 26.322,10.118 50.305,30.48 61.861,56.481 7.062,-14.695 16.844,-27.432 29.507,-37.711 23.494,-19.069 55.675,-29.089 85.907,-25.889 -6.618,2.61 -13.158,5.087 -19.305,8.726 -28.632,16.717 -49.299,44.288 -57.313,76.46 -0.688,2.838 -1.247,5.706 -1.673,8.596 -4.727,31.45 2.412,58.187 21.086,83.581 -38.232,0.711 -77.953,1.08 -116.135,0.165 z"
       id="path2" />
    <path
       d="m 417.69507,411.14386 c -16.16216,10.96096 -35.55818,15.12323 -52.1878,12.36754 -58.55758,-9.7039 -64.89484,-83.30896 -36.31771,-134.38037 5.52025,-9.86552 5.66902,-8.62138 16.61271,-9.43408 31.78396,-1.07328 64.2614,12.146 84.57711,30.27414 13.13988,11.72496 24.23755,27.56078 22.02044,47.42016 -1.96672,17.61663 -10.17559,32.72604 -24.82261,46.61425 2.31856,3.9972 2.88723,7.98274 4.05864,12.40947 1.8861,7.12841 6.67457,14.2175 14.7442,15.91447 2.45437,0.51597 4.97237,0.63134 5.43781,3.3382 0.48979,2.85162 -1.89788,5.81387 -5.11593,6.81425 -4.11561,1.2791 -8.40499,-0.95803 -11.36173,-2.55302 -7.96249,-4.51316 -12.3748,-11.0448 -14.86803,-19.79629 -0.87434,-3.06855 -1.34834,-6.16821 -2.7771,-8.98872 z M 341.42924,289.96124 h -1.47304 c -13.91554,27.31067 -19.41065,50.96631 -14.05528,77.63216 4.10727,20.45053 17.31233,39.24601 39.16417,44.78202 14.23188,3.60569 32.36293,0.74543 46.89797,-8.82624 -1.75421,-2.45017 -3.72352,-4.76077 -5.64238,-7.0865 l -5.53773,-6.79221 c -3.87501,-4.70027 -3.40965,-5.87696 -9.73199,-7.65042 -9.95608,-2.79286 -21.04909,-3.95398 -32.0857,-3.99461 -2.60765,-0.01 -5.48222,0.27527 -6.94851,-1.72938 -1.56139,-2.13299 -0.3436,-5.54941 2.39558,-7.40757 4.07049,-2.76087 25.27247,-0.0618 29.5279,0.52633 -1.28283,-1.73931 -2.74388,-3.35245 -4.13874,-5.00578 -6.9542,-8.24157 -13.40846,-16.88071 -20.2759,-25.19056 -1.61626,-1.95582 -4.65239,-4.48551 -4.78603,-7.27966 0.59673,-5.24994 6.69152,-8.53283 10.15126,-5.1674 0.77897,0.75752 1.4224,1.6611 2.09729,2.50548 l 18.63531,23.01134 c 2.70099,3.34079 5.26149,6.89679 8.2632,9.98694 0.0364,-4.81738 1.65885,-12.24093 2.64871,-17.18795 0.81623,-4.07973 1.09108,-11.04437 7.21077,-12.14327 6.39729,-1.14861 5.28342,4.72879 4.43502,8.55832 -1.85139,8.35826 -5.27544,30.40896 -2.1138,35.33826 0.62364,0.9723 1.47479,1.83353 2.2306,2.70816 l 3.32122,3.89219 c 3.53842,4.16055 7.08449,8.44727 10.26398,12.87747 11.55216,-11.38273 18.19295,-24.19581 19.36322,-38.18298 2.49347,-29.8083 -28.86637,-50.43557 -53.50698,-60.02885 -14.13725,-5.50416 -29.62408,-8.46352 -46.31012,-8.14529 z"
       id="path1"
       style="fill:#008000;stroke-width:0.442629" />
    <g
       id="g2"
       transform="matrix(1.9041445,1.2055535,-1.0662392,0.99444928,-277.86392,-1345.9609)">
      <path
         id="path24-4"
         style="fill:#2d5016;stroke-width:1.17258"
         d="m 854.16211,643.51953 c -2.87463,4.72655 5.2131,45.29435 5.55664,50.77735 0.32897,5.24313 1.12361,14.21434 1.61133,23.69531 -0.0869,0.85901 -0.67846,2.03086 -0.82677,2.71437 0,0 0.0288,2.17502 0.014,3.25083 -0.0956,6.97559 -3.98879,14.51084 -0.66472,20.75991 0.853,1.60359 2.81275,2.17475 3.60618,1.13149 2.80985,-3.69456 -3.60618,-1.13149 -1.01768,-19.46082 0.28215,-1.99791 1.47375,-5.23164 1.33801,-5.60877 -0.0796,-7.61294 -1.09677,-16.52045 -1.70688,-23.86707 -0.54283,-6.522 -7.32332,-47.1234 -7.91016,-53.39258 z"
         sodipodi:nodetypes="ccccaaascccc" />
      <path
         fill="#e99046"
         d="m 860.4081,720.7692 c -1.073,-0.875 -2.683,-1.3 -3.966,-1.852 -4.297,-1.848 -8.582,-4.026 -11.915,-7.365 -11.577,-11.599 -17.033,-27.571 -16.869,-43.787 0.065,-6.423 0.998,-12.756 2.403,-19.015 1.882,-8.377 9.457,-32.65 15.675,-38.735 1.553,-0.112 2.073,0.407 3.41,1.155 -1.98,7.854 3.49541,22.78337 4.906,34.22 0.70016,5.67666 1.003,11.585 1.765,17.068 1.759,12.651 7.515,47.009 5.162,57.853 z"
         id="path20"
         style="fill:#5aa02c"
         sodipodi:nodetypes="cccscccaccc" />
      <path
         fill="#efa857"
         d="m 849.1461,611.1702 c 18.705,16.608 33.501,42.103 35.03,67.344 0.708,11.702 -2.576,24.991 -10.344,34.055 -2.829,3.3 -6.247,5.89 -9.942,8.119 -0.041,0.025 -0.074,0.061 -0.111,0.091 v 0 c -1.656,-1.853 -1.321,-11.117 -1.524,-13.877 -1.011,-13.72 -3.109,-27.696 -5.2,-41.291 -1.004,-6.522 -2.01897,-13.47817 -3.003,-20.221 -1.66405,-11.40251 -6.886,-26.366 -4.906,-34.22 z"
         id="path21"
         style="fill:#8dd35f"
         sodipodi:nodetypes="ccccccccac" />
    </g>
  </g>
</svg>
