<?xml version="1.0" encoding="UTF-8" standalone="no"?>
<svg
   width="1024"
   height="1024"
   viewBox="0 0 1024 1024"
   version="1.1"
   id="svg9"
   sodipodi:docname="orgphoto.svg"
   inkscape:version="1.4.2 (f4327f4, 2025-05-13)"
   inkscape:export-filename="logo.png"
   inkscape:export-xdpi="90.047989"
   inkscape:export-ydpi="90.047989"
   xmlns:inkscape="http://www.inkscape.org/namespaces/inkscape"
   xmlns:sodipodi="http://sodipodi.sourceforge.net/DTD/sodipodi-0.dtd"
   xmlns="http://www.w3.org/2000/svg"
   xmlns:svg="http://www.w3.org/2000/svg">
  <defs
     id="defs9">
    <filter
       inkscape:label="Torn Edges"
       inkscape:menu="Distort"
       inkscape:menu-tooltip="Displace the outside of shapes and pictures without altering their content"
       height="1"
       y="0"
       width="1"
       x="0"
       style="color-interpolation-filters:sRGB;"
       id="filter12">
      <feTurbulence
         baseFrequency="0.05"
         numOctaves="5"
         type="fractalNoise"
         result="result91"
         id="feTurbulence12" />
      <feDisplacementMap
         scale="25"
         result="result5"
         xChannelSelector="R"
         in="SourceGraphic"
         in2="result91"
         id="feDisplacementMap12" />
      <feComposite
         in="SourceGraphic"
         operator="atop"
         in2="result5"
         id="feComposite12" />
    </filter>
    <filter
       inkscape:label="Chalk and Sponge"
       inkscape:menu="Distort"
       inkscape:menu-tooltip="Low turbulence gives sponge look and high turbulence chalk"
       height="1"
       y="0"
       width="1"
       x="0"
       style="color-interpolation-filters:sRGB;"
       id="filter13">
      <feTurbulence
         baseFrequency="0.05"
         numOctaves="5"
         type="fractalNoise"
         result="result91"
         id="feTurbulence13" />
      <feDisplacementMap
         scale="25"
         result="result5"
         xChannelSelector="R"
         in="SourceGraphic"
         in2="result91"
         id="feDisplacementMap13" />
      <feComposite
         in="SourceGraphic"
         operator="atop"
         in2="result5"
         id="feComposite13"
         result="fbSourceGraphic" />
      <feColorMatrix
         result="fbSourceGraphicAlpha"
         in="fbSourceGraphic"
         values="0 0 0 -1 0 0 0 0 -1 0 0 0 0 -1 0 0 0 0 1 0"
         id="feColorMatrix14" />
      <feTurbulence
         id="feTurbulence15"
         baseFrequency="0.4"
         type="fractalNoise"
         seed="0"
         numOctaves="5"
         result="result1"
         in="fbSourceGraphic" />
      <feDisplacementMap
         id="feDisplacementMap15"
         xChannelSelector="R"
         yChannelSelector="G"
         scale="30"
         in="fbSourceGraphic"
         in2="result1" />
    </filter>
    <filter
       inkscape:label="Lapping"
       inkscape:menu="Distort"
       inkscape:menu-tooltip="Something like a water noise"
       height="1.0554548"
       y="-0.02772739"
       width="1.0564608"
       x="-0.028230383"
       style="color-interpolation-filters:sRGB;"
       id="filter14">
      <feTurbulence
         numOctaves="5"
         seed="0"
         type="fractalNoise"
         baseFrequency="0.1"
         result="result1"
         id="feTurbulence14" />
      <feGaussianBlur
         stdDeviation="2"
         result="result2"
         id="feGaussianBlur14" />
      <feDisplacementMap
         scale="50"
         yChannelSelector="B"
         xChannelSelector="R"
         in="SourceGraphic"
         in2="result2"
         id="feDisplacementMap14" />
    </filter>
    <filter
       inkscape:label="Leaves"
       inkscape:menu="Scatter"
       inkscape:menu-tooltip="Leaves on the ground in Fall, or living foliage"
       style="color-interpolation-filters:sRGB;"
       id="filter17"
       x="-0.035454271"
       y="-0.034915494"
       width="1.0709085"
       height="1.069831">
      <feTurbulence
         baseFrequency="0.09"
         numOctaves="5"
         type="fractalNoise"
         result="result6"
         id="feTurbulence16" />
      <feColorMatrix
         values="1 0 0 0 0 0 1 0 0 0 0 0 1 0 0 0 0 0 4.9 -2.9 "
         result="result5"
         in="result6"
         id="feColorMatrix16" />
      <feComposite
         in2="result5"
         operator="in"
         in="SourceGraphic"
         id="feComposite16" />
      <feMorphology
         result="result3"
         radius="6"
         operator="dilate"
         id="feMorphology16" />
      <feTurbulence
         baseFrequency="0.2"
         numOctaves="1"
         type="fractalNoise"
         result="result91"
         id="feTurbulence17" />
      <feDisplacementMap
         result="result4"
         scale="15"
         yChannelSelector="G"
         xChannelSelector="R"
         in="result3"
         in2="result91"
         id="feDisplacementMap17" />
      <feComposite
         in2="result4"
         operator="arithmetic"
         result="result2"
         k1="0.5"
         k3="1"
         id="feComposite17" />
      <feConvolveMatrix
         order="3 3"
         kernelMatrix="1 0 0 0 2 0 0 0 -1 "
         targetX="0"
         targetY="0"
         divisor="1.5"
         edgeMode="duplicate"
         in="result2"
         id="feConvolveMatrix17" />
    </filter>
  </defs>
  <sodipodi:namedview
     id="namedview9"
     pagecolor="#ffffff"
     bordercolor="#000000"
     borderopacity="0.25"
     inkscape:showpageshadow="2"
     inkscape:pageopacity="0.0"
     inkscape:pagecheckerboard="true"
     inkscape:deskcolor="#d1d1d1"
     inkscape:zoom="4.54"
     inkscape:cx="351.87225"
     inkscape:cy="514.64758"
     inkscape:window-width="1920"
     inkscape:window-height="1009"
     inkscape:window-x="-8"
     inkscape:window-y="-8"
     inkscape:window-maximized="1"
     inkscape:current-layer="g3" />
  <rect
     style="display:none;opacity:1;fill:#ffffff;stroke-width:5.85139;stroke-linecap:round;stroke-linejoin:round"
     id="rect2"
     width="426.43927"
     height="375.4567"
     x="299.66519"
     y="324.27167" />
  <g
     id="g3"
     transform="translate(5.3676181,147.03391)"
     style="display:inline">
    <path
       d="m 453.999,453.753 c 3.764,-4.587 6.928,-9.713 9.682,-14.959 14.172,-27.003 16.214,-57.505 6.992,-86.398 -8.991,-27.788 -27.909,-51.288 -53.137,-66.005 -3.731,-2.135 -7.704,-4.303 -11.696,-5.91 -3.042,-1.224 -6.199,-2.051 -9.119,-3.565 l -0.215,-0.703 1.577,-0.577 c 20.956,0.602 31.349,-0.223 51.981,7.708 26.322,10.118 50.305,30.48 61.861,56.481 7.062,-14.695 16.844,-27.432 29.507,-37.711 23.494,-19.069 55.675,-29.089 85.907,-25.889 -6.618,2.61 -13.158,5.087 -19.305,8.726 -28.632,16.717 -49.299,44.288 -57.313,76.46 -0.688,2.838 -1.247,5.706 -1.673,8.596 -4.727,31.45 2.412,58.187 21.086,83.581 -38.232,0.711 -77.953,1.08 -116.135,0.165 z"
       id="path2"
       inkscape:label="TreeTrunk"
       style="display:none" />
    <path
       style="display:inline;fill:#3c989f;stroke:none;stroke-width:7.584;stroke-linecap:round;stroke-linejoin:round"
       d="m 339.9562,289.96124 c -7.1855,5.96027 -8.75433,15.91472 -11.06912,24.4844 -1.23118,7.2384 -8.93119,21.17073 -4.92429,29.32947 -4.63482,15.57728 0.035,25.45317 7.59942,40.25998 5.10378,12.2572 14.38607,23.93679 27.68701,26.76501 16.08151,7.97395 30.90307,3.8641 44.69471,-2.82822 16.93036,-7.30237 30.47143,-22.21208 35.52763,-39.99137 3.06119,-9.51817 4.89999,-21.28698 0,-30.16206 -5.84827,-12.06261 -16.89661,-21.63333 -28.74506,-28.13376 -15.48701,-9.58558 -32.83394,-16.47631 -50.96558,-18.79176 -6.43795,-1.95268 -13.58624,-5.68586 -19.80472,-0.93169 z"
       id="path3"
       inkscape:label="StrokeLeafFill"
       sodipodi:nodetypes="ccccccccccc" />
    <path
       d="m 417.69507,411.14386 c -16.16216,10.96096 -35.55818,15.12323 -52.1878,12.36754 -58.55758,-9.7039 -64.89484,-83.30896 -36.31771,-134.38037 5.52025,-9.86552 5.66902,-8.62138 16.61271,-9.43408 31.78396,-1.07328 64.2614,12.146 84.57711,30.27414 13.13988,11.72496 24.23755,27.56078 22.02044,47.42016 -1.96672,17.61663 -10.17559,32.72604 -24.82261,46.61425 2.31856,3.9972 2.88723,7.98274 4.05864,12.40947 1.8861,7.12841 6.67457,14.2175 14.7442,15.91447 2.45437,0.51597 4.97237,0.63134 5.43781,3.3382 0.48979,2.85162 -1.89788,5.81387 -5.11593,6.81425 -4.11561,1.2791 -8.40499,-0.95803 -11.36173,-2.55302 -7.96249,-4.51316 -12.3748,-11.0448 -14.86803,-19.79629 -0.87434,-3.06855 -1.34834,-6.16821 -2.7771,-8.98872 z M 341.42924,289.96124 h -1.47304 c -13.91554,27.31067 -19.41065,50.96631 -14.05528,77.63216 4.10727,20.45053 17.31233,39.24601 39.16417,44.78202 14.23188,3.60569 32.36293,0.74543 46.89797,-8.82624 -1.75421,-2.45017 -3.72352,-4.76077 -5.64238,-7.0865 l -5.53773,-6.79221 c -3.87501,-4.70027 -3.40965,-5.87696 -9.73199,-7.65042 -9.95608,-2.79286 -21.04909,-3.95398 -32.0857,-3.99461 -2.60765,-0.01 -5.48222,0.27527 -6.94851,-1.72938 -1.56139,-2.13299 -0.3436,-5.54941 2.39558,-7.40757 4.07049,-2.76087 25.27247,-0.0618 29.5279,0.52633 -1.28283,-1.73931 -2.74388,-3.35245 -4.13874,-5.00578 -6.9542,-8.24157 -13.40846,-16.88071 -20.2759,-25.19056 -1.61626,-1.95582 -4.65239,-4.48551 -4.78603,-7.27966 0.59673,-5.24994 6.69152,-8.53283 10.15126,-5.1674 0.77897,0.75752 1.4224,1.6611 2.09729,2.50548 l 18.63531,23.01134 c 2.70099,3.34079 5.26149,6.89679 8.2632,9.98694 0.0364,-4.81738 1.65885,-12.24093 2.64871,-17.18795 0.81623,-4.07973 1.09108,-11.04437 7.21077,-12.14327 6.39729,-1.14861 5.28342,4.72879 4.43502,8.55832 -1.85139,8.35826 -5.27544,30.40896 -2.1138,35.33826 0.62364,0.9723 1.47479,1.83353 2.2306,2.70816 l 3.32122,3.89219 c 3.53842,4.16055 7.08449,8.44727 10.26398,12.87747 11.55216,-11.38273 18.19295,-24.19581 19.36322,-38.18298 2.49347,-29.8083 -28.86637,-50.43557 -53.50698,-60.02885 -14.13725,-5.50416 -29.62408,-8.46352 -46.31012,-8.14529 z"
       id="path1"
       style="display:inline;fill:#008000;stroke-width:0.442629"
       inkscape:label="StrokeLeaf" />
    <g
       id="g2"
       transform="matrix(1.9041445,1.2055535,-1.0662392,0.99444928,-277.86392,-1345.9609)"
       inkscape:label="FilledLeaf"
       style="display:none">
      <path
         id="path24-4"
         style="display:none;fill:#2d5016;stroke-width:1.17258"
         d="m 854.16211,643.51953 c -2.87463,4.72655 5.2131,45.29435 5.55664,50.77735 0.32897,5.24313 1.12361,14.21434 1.61133,23.69531 -0.0869,0.85901 -0.67846,2.03086 -0.82677,2.71437 0,0 0.0288,2.17502 0.014,3.25083 -0.0956,6.97559 -3.98879,14.51084 -0.66472,20.75991 0.853,1.60359 2.81275,2.17475 3.60618,1.13149 2.80985,-3.69456 -3.60618,-1.13149 -1.01768,-19.46082 0.28215,-1.99791 1.47375,-5.23164 1.33801,-5.60877 -0.0796,-7.61294 -1.09677,-16.52045 -1.70688,-23.86707 -0.54283,-6.522 -7.32332,-47.1234 -7.91016,-53.39258 z"
         sodipodi:nodetypes="ccccaaascccc" />
      <path
         fill="#e99046"
         d="m 860.4081,720.7692 c -1.073,-0.875 -2.683,-1.3 -3.966,-1.852 -4.297,-1.848 -8.582,-4.026 -11.915,-7.365 -11.577,-11.599 -17.033,-27.571 -16.869,-43.787 0.065,-6.423 0.998,-12.756 2.403,-19.015 1.882,-8.377 9.457,-32.65 15.675,-38.735 1.553,-0.112 2.073,0.407 3.41,1.155 -1.98,7.854 3.49541,22.78337 4.906,34.22 0.70016,5.67666 1.003,11.585 1.765,17.068 1.759,12.651 7.515,47.009 5.162,57.853 z"
         id="path20"
         style="display:none;fill:#5aa02c"
         sodipodi:nodetypes="cccscccaccc" />
      <path
         fill="#efa857"
         d="m 849.1461,611.1702 c 18.705,16.608 33.501,42.103 35.03,67.344 0.708,11.702 -2.576,24.991 -10.344,34.055 -2.829,3.3 -6.247,5.89 -9.942,8.119 -0.041,0.025 -0.074,0.061 -0.111,0.091 v 0 c -1.656,-1.853 -1.321,-11.117 -1.524,-13.877 -1.011,-13.72 -3.109,-27.696 -5.2,-41.291 -1.004,-6.522 -2.01897,-13.47817 -3.003,-20.221 -1.66405,-11.40251 -6.886,-26.366 -4.906,-34.22 z"
         id="path21"
         style="display:none;fill:#8dd35f"
         sodipodi:nodetypes="ccccccccac" />
    </g>
  </g>
</svg>
